<?xml version="1.0" encoding="UTF-8" standalone="no"?>
<svg
   xmlns:dc="http://purl.org/dc/elements/1.1/"
   xmlns:cc="http://creativecommons.org/ns#"
   xmlns:rdf="http://www.w3.org/1999/02/22-rdf-syntax-ns#"
   xmlns:svg="http://www.w3.org/2000/svg"
   xmlns="http://www.w3.org/2000/svg"
   viewBox="0 0 793.70081 1122.5197"
   height="1122.5197"
   width="793.70081"
   xml:space="preserve"
   id="svg2"
   version="1.1"><metadata
     id="metadata8"><rdf:RDF><cc:Work
         rdf:about=""><dc:format>image/svg+xml</dc:format><dc:type
           rdf:resource="http://purl.org/dc/dcmitype/StillImage" /></cc:Work></rdf:RDF></metadata><defs
     id="defs6"><clipPath
       id="clipPath18"
       clipPathUnits="userSpaceOnUse"><path
         style="clip-rule:evenodd"
         id="path16"
         d="M 0,0 H 595.2756 V 841.8898 H 0 Z" /></clipPath></defs><g
     transform="matrix(1.3333333,0,0,-1.3333333,0,1122.5197)"
     id="g10"><g
       id="g12"><g
         clip-path="url(#clipPath18)"
         id="g14"><path
           id="path20"
           style="fill:#ffffff;fill-opacity:1;fill-rule:evenodd;stroke:#ffffff;stroke-width:0.5;stroke-linecap:butt;stroke-linejoin:miter;stroke-miterlimit:2.61312604;stroke-dasharray:none;stroke-opacity:1"
           d="m 354.3619,491.845 0.0261,-9.4904 h 91.8603 V 625.5763 H 148.1573 V 523.3365 h 11.2161 v 93.6119 H 436.2015 V 491.845 Z" /><path
           id="path22"
           style="fill:#ffffff;fill-opacity:1;fill-rule:nonzero;stroke:none"
           d="m 160.8908,482.6186 v 24.1908 h 10.2881 c 2.5843,0 4.4654,-0.2197 5.6367,-0.6531 1.1766,-0.4337 2.1115,-1.205 2.8153,-2.3145 0.7039,-1.1148 1.0588,-2.3819 1.0588,-3.812 0,-1.819 -0.5295,-3.3168 -1.5937,-4.4994 -1.0644,-1.1824 -2.6523,-1.9259 -4.7695,-2.2354 1.053,-0.6137 1.9201,-1.2895 2.6016,-2.0271 0.6868,-0.7379 1.6104,-2.0497 2.7703,-3.9305 l 2.9506,-4.7188 h -5.8394 l -3.5022,5.2817 c -1.256,1.8752 -2.1175,3.0578 -2.5849,3.5476 -0.4615,0.4844 -0.9516,0.8223 -1.4695,1.0023 -0.5238,0.1803 -1.3459,0.2705 -2.4721,0.2705 h -0.9913 v -10.1021 z m 4.8988,13.9538 h 3.6153 c 2.3426,0 3.801,0.1012 4.3867,0.2982 0.5799,0.1973 1.0417,0.5408 1.3682,1.025 0.3323,0.4841 0.4955,1.0922 0.4955,1.8187 0,0.8167 -0.2196,1.4698 -0.6531,1.9766 -0.4337,0.5012 -1.0474,0.8164 -1.8357,0.9459 -0.3999,0.0564 -1.5879,0.0845 -3.5645,0.0845 h -3.8124 z m 34.9747,-5.0344 4.7299,-1.4527 c -0.7262,-2.6634 -1.9369,-4.64 -3.6263,-5.9352 -1.6892,-1.2895 -3.8291,-1.9369 -6.425,-1.9369 -3.2154,0 -5.8564,1.0979 -7.9285,3.2941 -2.0665,2.196 -3.1028,5.1974 -3.1028,9.0097 0,4.026 1.0417,7.1569 3.1198,9.3869 2.0778,2.23 4.8146,3.3449 8.2043,3.3449 2.9619,0 5.3663,-0.8785 7.2133,-2.6297 1.1038,-1.0361 1.9259,-2.5228 2.4778,-4.4654 l -4.8314,-1.1489 c -0.2874,1.2501 -0.8841,2.2411 -1.7909,2.9676 -0.9119,0.7265 -2.0157,1.0868 -3.3109,1.0868 -1.7963,0 -3.2547,-0.6421 -4.3696,-1.9315 -1.1208,-1.2839 -1.6781,-3.3673 -1.6781,-6.2504 0,-3.0521 0.5519,-5.2311 1.6498,-6.5265 1.1038,-1.3006 2.5338,-1.9483 4.2964,-1.9483 1.3008,0 2.4214,0.411 3.3562,1.239 0.9346,0.8278 1.6104,2.1229 2.016,3.8965 z m 29.5628,-0.0337 v 4.0881 h 10.5075 v -9.6516 c -1.019,-0.9967 -2.5001,-1.8695 -4.4427,-2.6297 -1.9372,-0.7546 -3.9022,-1.1319 -5.8958,-1.1319 -2.5282,0 -4.7299,0.5295 -6.6107,1.5936 -1.8751,1.0644 -3.2887,2.5903 -4.2347,4.5669 -0.9459,1.9763 -1.419,4.1332 -1.419,6.4588 0,2.5228 0.5292,4.7639 1.5823,6.7291 1.0588,1.9596 2.6017,3.4688 4.6344,4.5162 1.5542,0.805 3.4801,1.205 5.7886,1.205 3.0016,0 5.3496,-0.6307 7.039,-1.8921 1.6835,-1.2671 2.7703,-3.007 3.2547,-5.237 l -4.8653,-0.9122 c -0.3379,1.1882 -0.9797,2.1285 -1.9202,2.8213 -0.9346,0.6868 -2.1059,1.0304 -3.5136,1.0304 -2.1285,0 -3.8236,-0.6758 -5.0794,-2.0327 -1.2557,-1.3573 -1.8864,-3.3676 -1.8864,-6.031 0,-2.8775 0.6363,-5.0341 1.9091,-6.4701 1.2781,-1.4358 2.9449,-2.1566 5.0114,-2.1566 1.0193,0 2.0443,0.2027 3.069,0.6026 1.0307,0.3997 1.9089,0.8895 2.6467,1.4641 v 3.0688 z m 15.0293,-8.8857 v 24.1908 h 10.2881 c 2.5844,0 4.4654,-0.2197 5.6367,-0.6531 1.1767,-0.4337 2.1115,-1.205 2.8154,-2.3145 0.7038,-1.1148 1.0587,-2.3819 1.0587,-3.812 0,-1.819 -0.5295,-3.3168 -1.5936,-4.4994 -1.0644,-1.1824 -2.6524,-1.9259 -4.7696,-2.2354 1.0531,-0.6137 1.9202,-1.2895 2.6016,-2.0271 0.6869,-0.7379 1.6104,-2.0497 2.7706,-3.9305 l 2.9506,-4.7188 h -5.8394 l -3.5025,5.2817 c -1.2557,1.8752 -2.1174,3.0578 -2.5846,3.5476 -0.4618,0.4844 -0.9519,0.8223 -1.4698,1.0023 -0.5238,0.1803 -1.3458,0.2705 -2.472,0.2705 h -0.991 v -10.1021 z m 4.8992,13.9538 h 3.615 c 2.3425,0 3.801,0.1012 4.3866,0.2982 0.58,0.1973 1.0417,0.5408 1.3683,1.025 0.3322,0.4841 0.4955,1.0922 0.4955,1.8187 0,0.8167 -0.2197,1.4698 -0.6531,1.9766 -0.4337,0.5012 -1.0474,0.8164 -1.8357,0.9459 -0.4,0.0564 -1.588,0.0845 -3.5646,0.0845 h -3.812 z m 18.4867,-2.0047 c 0,2.4662 0.3716,4.5386 1.1092,6.2164 0.5462,1.2333 1.3008,2.3428 2.2524,3.3225 0.9516,0.9799 1.9936,1.7062 3.1252,2.1849 1.5091,0.6361 3.249,0.9573 5.22,0.9573 3.5702,0 6.4193,-1.1095 8.5649,-3.3225 2.1398,-2.2184 3.2096,-5.2988 3.2096,-9.246 0,-3.9136 -1.0641,-6.977 -3.1873,-9.1843 -2.1225,-2.213 -4.9663,-3.3168 -8.5195,-3.3168 -3.5983,0 -6.4647,1.0981 -8.5873,3.2998 -2.1231,2.1963 -3.1872,5.2257 -3.1872,9.0887 z m 5.034,0.1633 c 0,-2.7425 0.6364,-4.8203 1.9035,-6.2393 1.2668,-1.4134 2.8774,-2.1229 4.8257,-2.1229 1.9539,0 3.5532,0.7038 4.809,2.1061 1.25,1.4077 1.8751,3.5136 1.8751,6.3236 0,2.7762 -0.6081,4.8483 -1.8301,6.2109 -1.2163,1.3683 -2.8324,2.0498 -4.854,2.0498 -2.016,0 -3.6434,-0.6928 -4.8765,-2.0721 -1.2333,-1.3853 -1.8527,-3.4688 -1.8527,-6.2561 z m 22.2596,12.0784 h 4.8989 v -13.1088 c 0,-2.0837 0.0621,-3.4294 0.1803,-4.0433 0.2083,-0.991 0.6981,-1.7907 1.4754,-2.3877 0.7826,-0.6023 1.847,-0.9008 3.1983,-0.9008 1.3683,0 2.4044,0.2815 3.1028,0.8504 0.6982,0.5686 1.1149,1.2611 1.2558,2.0888 0.1406,0.828 0.2137,2.1963 0.2137,4.1108 v 13.3906 h 4.8991 v -12.7205 c 0,-2.9058 -0.1295,-4.9609 -0.394,-6.1602 -0.2648,-1.1996 -0.7489,-2.213 -1.4587,-3.0407 -0.7038,-0.8277 -1.6498,-1.4811 -2.8324,-1.971 -1.188,-0.4898 -2.7309,-0.7378 -4.64,-0.7378 -2.3029,0 -4.0485,0.2647 -5.2367,0.7996 -1.188,0.5352 -2.1286,1.2277 -2.8211,2.0835 -0.6928,0.8561 -1.1432,1.7456 -1.3629,2.6861 -0.3209,1.3853 -0.4785,3.4347 -0.4785,6.1435 z m 24.3992,-24.1908 v 24.1908 h 7.833 c 2.9676,0 4.8989,-0.1182 5.8,-0.3603 1.385,-0.3659 2.5449,-1.1542 3.4798,-2.3706 0.9349,-1.2163 1.4023,-2.7876 1.4023,-4.7131 0,-1.4868 -0.2704,-2.7312 -0.8053,-3.7449 -0.5406,-1.0134 -1.222,-1.8074 -2.0498,-2.3876 -0.8277,-0.5743 -1.6724,-0.9573 -2.5285,-1.1429 -1.1653,-0.2311 -2.8491,-0.3493 -5.0564,-0.3493 h -3.1759 v -9.1221 z m 4.8992,20.1027 v -6.8924 h 2.6634 c 1.9202,0 3.1983,0.1295 3.846,0.3829 0.6475,0.2534 1.1543,0.6477 1.5203,1.1937 0.3662,0.5408 0.5519,1.1659 0.5519,1.8864 0,0.8842 -0.2591,1.6107 -0.7713,2.185 -0.5182,0.5743 -1.1656,0.9348 -1.9596,1.0811 -0.58,0.1072 -1.7456,0.1633 -3.5025,0.1633 z" /><path
           id="path24"
           style="fill:#ffffff;fill-opacity:1;fill-rule:nonzero;stroke:none"
           d="m 149.0026,455.6982 v 16.0438 h 6.8233 c 1.7141,0 2.9616,-0.1457 3.7383,-0.4331 0.7804,-0.2875 1.4003,-0.7994 1.8672,-1.535 0.4668,-0.7393 0.7021,-1.5797 0.7021,-2.5282 0,-1.2064 -0.3509,-2.1997 -1.0567,-2.984 -0.7062,-0.7844 -1.7592,-1.2773 -3.1635,-1.4826 0.6984,-0.407 1.2736,-0.8552 1.7254,-1.3444 0.4559,-0.4893 1.0681,-1.3595 1.8375,-2.6068 l 1.957,-3.1297 h -3.8727 l -2.323,3.5031 c -0.8328,1.2438 -1.4043,2.0279 -1.7141,2.3527 -0.3064,0.3212 -0.6313,0.5454 -0.9748,0.665 -0.3473,0.1194 -0.8927,0.1792 -1.6396,0.1792 h -0.6571 v -6.7 z m 3.2493,9.2543 h 2.3976 c 1.5536,0 2.5208,0.0674 2.9092,0.1981 0.3846,0.1307 0.6908,0.3583 0.9076,0.6795 0.2203,0.3214 0.3286,0.7245 0.3286,1.2064 0,0.5414 -0.1457,0.9748 -0.4332,1.3107 -0.2877,0.3325 -0.6947,0.5417 -1.2174,0.6276 -0.2654,0.0372 -1.0534,0.0559 -2.3641,0.0559 h -2.5283 z m 12.9325,-9.2543 v 16.0438 h 11.8761 v -2.7113 h -8.6267 v -3.5629 h 8.0218 v -2.711 h -8.0218 v -4.3473 h 8.9405 v -2.7113 z m 15.0356,0 v 15.9095 h 3.249 v -13.1982 h 8.0445 v -2.7113 z m 13.4855,0 v 16.0438 h 3.2491 v -16.0438 z m 20.7904,0 h -3.4993 l -1.3856,3.6527 h -6.4347 l -1.3331,-3.6527 h -3.4359 l 6.2295,16.0438 h 3.4321 z m -5.938,6.3638 -2.2294,5.938 -2.166,-5.938 z m 7.6672,9.68 h 6.4159 c 1.2736,0 2.2184,-0.0521 2.842,-0.1567 0.6276,-0.1083 1.1841,-0.3286 1.677,-0.6611 0.4929,-0.3362 0.9037,-0.7804 1.2322,-1.3371 0.3288,-0.5564 0.493,-1.1837 0.493,-1.8745 0,-0.747 -0.2016,-1.438 -0.6049,-2.0617 -0.4034,-0.6273 -0.9522,-1.0941 -1.6433,-1.4079 0.9748,-0.2875 1.7218,-0.773 2.2482,-1.4602 0.523,-0.6871 0.7843,-1.4938 0.7843,-2.4236 0,-0.7322 -0.1681,-1.4417 -0.508,-2.1325 -0.3398,-0.6911 -0.8027,-1.2436 -1.3929,-1.6583 -0.5862,-0.4107 -1.3107,-0.6647 -2.1733,-0.7616 -0.538,-0.0562 -1.8414,-0.0936 -3.9064,-0.1086 h -5.4638 z m 3.249,-2.6665 v -3.6973 h 2.1212 c 1.2586,0 2.0429,0.0187 2.3491,0.0562 0.5527,0.0635 0.9898,0.2539 1.307,0.5714 0.3175,0.3175 0.4746,0.7319 0.4746,1.2473 0,0.4966 -0.1384,0.8963 -0.4111,1.2064 -0.2724,0.3098 -0.6794,0.4966 -1.2172,0.5601 -0.3214,0.0374 -1.2438,0.0559 -2.7637,0.0559 z m 0,-6.3635 v -4.3025 h 3.0028 c 1.165,0 1.9083,0.0338 2.2218,0.0973 0.4819,0.0895 0.8742,0.3024 1.1766,0.6423 0.3025,0.3436 0.4556,0.7954 0.4556,1.3669 0,0.4855 -0.1157,0.8923 -0.3512,1.2285 -0.2314,0.3362 -0.5712,0.5828 -1.012,0.7359 -0.4408,0.153 -1.4003,0.2316 -2.8755,0.2316 z m 13.0224,-7.0138 v 15.9095 h 3.2491 v -13.1982 h 8.0444 v -2.7113 z m 13.5975,0 v 16.0438 h 11.876 v -2.7113 h -8.6269 v -3.5629 h 8.022 v -2.711 h -8.022 v -4.3473 h 8.9407 v -2.7113 z m 31.4343,5.9156 3.1368,-0.9635 c -0.4816,-1.7662 -1.2844,-3.0773 -2.4049,-3.9362 -1.1203,-0.8552 -2.5396,-1.2846 -4.2611,-1.2846 -2.1325,0 -3.884,0.7282 -5.2585,2.1846 -1.3706,1.4565 -2.0577,3.447 -2.0577,5.9755 0,2.6702 0.6908,4.7466 2.069,6.2254 1.3779,1.4789 3.1932,2.2184 5.4414,2.2184 1.9644,0 3.5589,-0.5825 4.784,-1.7441 0.7319,-0.6872 1.277,-1.673 1.643,-2.9614 l -3.2043,-0.7619 c -0.1905,0.8291 -0.5862,1.4864 -1.1874,1.968 -0.6052,0.4819 -1.3371,0.7209 -2.196,0.7209 -1.1914,0 -2.1586,-0.4258 -2.8982,-1.281 -0.7429,-0.8515 -1.1129,-2.2334 -1.1129,-4.1454 0,-2.0242 0.366,-3.4693 1.0945,-4.3285 0.7319,-0.8626 1.6804,-1.292 2.8494,-1.292 0.8626,0 1.6058,0.2727 2.2257,0.8215 0.62,0.5491 1.0681,1.4079 1.3372,2.5843 z m 5.2469,2.0092 c 0,1.6359 0.2463,3.0101 0.7359,4.123 0.3622,0.8181 0.8625,1.5537 1.4935,2.2034 0.6313,0.65 1.3221,1.1316 2.0727,1.4491 1.0009,0.422 2.1549,0.6349 3.462,0.6349 2.3678,0 4.2576,-0.7356 5.6803,-2.2034 1.4193,-1.4714 2.1288,-3.5143 2.1288,-6.1321 0,-2.5957 -0.7058,-4.6273 -2.1138,-6.0911 -1.4079,-1.4678 -3.2938,-2.1997 -5.6503,-2.1997 -2.3864,0 -4.2874,0.7282 -5.6953,2.1883 -1.408,1.4568 -2.1138,3.4657 -2.1138,6.0276 z m 3.3386,0.1083 c 0,-1.8187 0.4221,-3.1966 1.2623,-4.1377 0.8405,-0.9374 1.9086,-1.408 3.2006,-1.408 1.296,0 2.3564,0.4669 3.1893,1.3966 0.8291,0.9338 1.2435,2.3304 1.2435,4.1939 0,1.8414 -0.4034,3.2156 -1.2135,4.1193 -0.8067,0.9074 -1.8785,1.3595 -3.2193,1.3595 -1.3368,0 -2.4163,-0.4595 -3.2341,-1.3742 -0.818,-0.9187 -1.2288,-2.3006 -1.2288,-4.1494 z m 14.7629,-8.0331 v 16.0438 h 3.1444 l 6.6028,-10.7518 v 10.7518 h 3.0027 v -16.0438 h -3.2454 l -6.5021,10.5466 v -10.5466 z m 15.3303,5.1987 3.1595,0.3138 c 0.1905,-1.057 0.5715,-1.83 1.1503,-2.3266 0.5788,-0.497 1.3595,-0.7433 2.3417,-0.7433 1.038,0 1.8224,0.2203 2.3488,0.6611 0.5267,0.4405 0.792,0.9558 0.792,1.546 0,0.381 -0.1123,0.7021 -0.3325,0.9708 -0.2203,0.2654 -0.6086,0.497 -1.1614,0.6911 -0.3773,0.1344 -1.2362,0.366 -2.5806,0.7022 -1.7292,0.4331 -2.943,0.9635 -3.6411,1.5945 -0.9823,0.8852 -1.4715,1.9644 -1.4715,3.238 0,0.8178 0.2316,1.5871 0.6908,2.3006 0.4629,0.7132 1.1279,1.2546 1.9981,1.6282 0.87,0.3733 1.9157,0.5601 3.1482,0.5601 2.0055,0 3.5178,-0.4445 4.53,-1.3371 1.0157,-0.8923 1.5461,-2.08 1.5985,-3.5702 l -3.2494,-0.112 c -0.138,0.8291 -0.4331,1.423 -0.8849,1.7853 -0.4519,0.3622 -1.1316,0.5451 -2.0353,0.5451 -0.9337,0 -1.6656,-0.1942 -2.1923,-0.5825 -0.3399,-0.2503 -0.5117,-0.5826 -0.5117,-1.001 0,-0.3809 0.1607,-0.7058 0.4819,-0.9748 0.4071,-0.3472 1.3966,-0.7058 2.969,-1.0791 1.5721,-0.3697 2.7338,-0.758 3.4844,-1.154 0.7543,-0.3997 1.3444,-0.9411 1.7702,-1.6322 0.4258,-0.6908 0.6386,-1.5423 0.6386,-2.5543 0,-0.9187 -0.2539,-1.7813 -0.7656,-2.5844 -0.5116,-0.803 -1.2325,-1.4006 -2.1662,-1.7889 -0.9335,-0.392 -2.0988,-0.5862 -3.4917,-0.5862 -2.0279,0 -3.5853,0.4666 -4.6721,1.4043 -1.0865,0.9334 -1.7328,2.2966 -1.9457,4.0855 z m 19.4048,-5.1987 v 13.3325 h -4.7503 v 2.7113 h 12.7276 v -2.7113 h -4.7282 v -13.3325 z m 10.0798,0 v 16.0438 h 6.823 c 1.7141,0 2.9616,-0.1457 3.7383,-0.4331 0.7806,-0.2875 1.4006,-0.7994 1.8672,-1.535 0.4668,-0.7393 0.7021,-1.5797 0.7021,-2.5282 0,-1.2064 -0.3509,-2.1997 -1.0568,-2.984 -0.7058,-0.7844 -1.7588,-1.2773 -3.1631,-1.4826 0.6981,-0.407 1.2736,-0.8552 1.7254,-1.3444 0.4555,-0.4893 1.0678,-1.3595 1.8374,-2.6068 l 1.9568,-3.1297 h -3.8727 l -2.323,3.5031 c -0.8328,1.2438 -1.4043,2.0279 -1.7141,2.3527 -0.3061,0.3212 -0.6313,0.5454 -0.9746,0.665 -0.3475,0.1194 -0.8926,0.1792 -1.6395,0.1792 h -0.6574 v -6.7 z m 3.249,9.2543 h 2.3976 c 1.5536,0 2.5208,0.0674 2.9092,0.1981 0.3846,0.1307 0.6908,0.3583 0.9076,0.6795 0.2203,0.3214 0.3286,0.7245 0.3286,1.2064 0,0.5414 -0.1457,0.9748 -0.4332,1.3107 -0.2877,0.3325 -0.6947,0.5417 -1.2175,0.6276 -0.2653,0.0372 -1.0533,0.0559 -2.364,0.0559 h -2.5283 z m 12.9328,6.7895 h 3.2491 v -8.6938 c 0,-1.3819 0.0411,-2.2746 0.1196,-2.6816 0.1381,-0.6574 0.4629,-1.1877 0.9782,-1.5835 0.5194,-0.3996 1.2252,-0.5975 2.1215,-0.5975 0.9074,0 1.5945,0.1865 2.0577,0.5638 0.4631,0.3773 0.7395,0.8365 0.8328,1.3856 0.0932,0.5491 0.142,1.4564 0.142,2.7264 v 8.8806 h 3.2488 v -8.4362 c 0,-1.9272 -0.0856,-3.2904 -0.2611,-4.0858 -0.1757,-0.7954 -0.4969,-1.4678 -0.9674,-2.0166 -0.4669,-0.5491 -1.0942,-0.9822 -1.8786,-1.3071 -0.788,-0.3248 -1.811,-0.4892 -3.0773,-0.4892 -1.5273,0 -2.6852,0.1755 -3.473,0.5303 -0.788,0.3547 -1.4116,0.8142 -1.8711,1.3817 -0.4592,0.5677 -0.758,1.1576 -0.9037,1.7815 -0.2129,0.9187 -0.3175,2.278 -0.3175,4.0743 z m 26.4444,-10.1282 3.1371,-0.9635 c -0.4819,-1.7662 -1.2846,-3.0773 -2.4052,-3.9362 -1.1202,-0.8552 -2.5392,-1.2846 -4.261,-1.2846 -2.1325,0 -3.884,0.7282 -5.2583,2.1846 -1.3705,1.4565 -2.0576,3.447 -2.0576,5.9755 0,2.6702 0.6908,4.7466 2.069,6.2254 1.3779,1.4789 3.1929,2.2184 5.4411,2.2184 1.9644,0 3.5591,-0.5825 4.784,-1.7441 0.7319,-0.6872 1.2773,-1.673 1.6432,-2.9614 l -3.2042,-0.7619 c -0.1905,0.8291 -0.5862,1.4864 -1.1878,1.968 -0.6049,0.4819 -1.3368,0.7209 -2.1957,0.7209 -1.1914,0 -2.1586,-0.4258 -2.8981,-1.281 -0.7433,-0.8515 -1.1129,-2.2334 -1.1129,-4.1454 0,-2.0242 0.366,-3.4693 1.0942,-4.3285 0.7319,-0.8626 1.6806,-1.292 2.8494,-1.292 0.8628,0 1.6061,0.2727 2.226,0.8215 0.6199,0.5491 1.0681,1.4079 1.3368,2.5843 z m 9.527,-5.9156 v 13.3325 h -4.7503 v 2.7113 h 12.7273 v -2.7113 h -4.7279 v -13.3325 z m 9.9675,0 v 16.0438 h 3.249 v -16.0438 z m 5.6653,7.9248 c 0,1.6359 0.2466,3.0101 0.7358,4.123 0.3623,0.8181 0.8626,1.5537 1.4939,2.2034 0.631,0.65 1.3221,1.1316 2.0727,1.4491 1.0009,0.422 2.1549,0.6349 3.462,0.6349 2.3677,0 4.2573,-0.7356 5.6803,-2.2034 1.419,-1.4714 2.1285,-3.5143 2.1285,-6.1321 0,-2.5957 -0.7058,-4.6273 -2.1135,-6.0911 -1.4082,-1.4678 -3.2941,-2.1997 -5.6506,-2.1997 -2.3864,0 -4.2874,0.7282 -5.6953,2.1883 -1.4077,1.4568 -2.1138,3.4657 -2.1138,6.0276 z m 3.3389,0.1083 c 0,-1.8187 0.4221,-3.1966 1.2623,-4.1377 0.8402,-0.9374 1.9083,-1.408 3.2006,-1.408 1.2957,0 2.3564,0.4669 3.1892,1.3966 0.8292,0.9338 1.2436,2.3304 1.2436,4.1939 0,1.8414 -0.4034,3.2156 -1.2138,4.1193 -0.8065,0.9074 -1.8785,1.3595 -3.219,1.3595 -1.3371,0 -2.4163,-0.4595 -3.2344,-1.3742 -0.8178,-0.9187 -1.2285,-2.3006 -1.2285,-4.1494 z m 14.7626,-8.0331 v 16.0438 h 3.1447 l 6.6028,-10.7518 v 10.7518 h 3.0024 v -16.0438 h -3.2454 l -6.5018,10.5466 v -10.5466 z" /></g></g></g></svg>