<?xml version="1.0" standalone="no"?>
<!DOCTYPE svg PUBLIC "-//W3C//DTD SVG 20010904//EN"
 "http://www.w3.org/TR/2001/REC-SVG-20010904/DTD/svg10.dtd">
<svg version="1.0" xmlns="http://www.w3.org/2000/svg"
 width="851.000000pt" height="1258.000000pt" viewBox="0 0 851.000000 1258.000000"
 preserveAspectRatio="xMidYMid meet">

<g transform="translate(0.000000,1258.000000) scale(0.100000,-0.100000)"
fill="#000000" stroke="none">
<path d="M0 6290 l0 -6290 4255 0 4255 0 0 6290 0 6290 -4255 0 -4255 0 0
-6290z m3920 5754 l43 -105 -7 -222 c-6 -240 -13 -856 -26 -2485 -4 -574 -10
-1045 -12 -1048 -3 -2 -8 420 -12 938 -6 859 -15 1606 -31 2646 -4 210 -4 382
-2 382 3 0 24 -47 47 -106z m1160 -125 c25 -32 74 -94 110 -139 106 -134 189
-240 300 -385 58 -76 131 -169 162 -207 32 -38 146 -187 255 -331 108 -144
207 -274 219 -290 l23 -27 5 42 c3 24 10 313 16 642 6 330 12 601 14 603 1 2
6 -298 9 -667 4 -371 11 -680 16 -694 6 -13 45 -71 88 -128 72 -94 220 -295
387 -523 l66 -90 -37 -32 c-21 -18 -40 -32 -43 -32 -3 0 -106 137 -229 304
-124 168 -227 303 -229 301 -2 -3 1 -460 7 -1018 14 -1296 15 -3168 1 -3168
-5 0 -10 -12 -10 -26 0 -14 -4 -23 -10 -19 -9 5 -13 -22 -14 -85 0 -10 -10
-17 -24 -18 l-25 -2 6 2216 7 2216 -177 242 c-239 328 -247 337 -379 531 -64
94 -156 226 -204 295 -48 69 -131 190 -185 270 -54 80 -133 193 -177 251 -43
58 -78 110 -78 115 0 10 60 -58 130 -147z m-1015 -143 c20 -56 34 -108 31
-120 -3 -12 -10 -763 -16 -1671 -6 -907 -15 -1769 -19 -1915 -5 -211 -8 -66
-14 705 -9 1117 -24 2492 -32 2870 -4 164 -3 254 3 245 5 -8 26 -60 47 -114z
m131 -265 l37 -94 -6 -631 c-4 -347 -10 -1074 -13 -1616 -4 -542 -9 -1113 -13
-1270 -6 -265 -7 -238 -14 375 -4 363 -12 1175 -17 1805 -5 630 -12 1233 -16
1340 -4 107 -4 193 -1 190 3 -3 22 -47 43 -99z m-380 -308 c-12 -360 -30
-2243 -36 -3753 -1 -404 -5 -917 -9 -1140 -4 -299 -8 -21 -14 1070 -4 811 -12
1999 -18 2640 -11 1162 -11 1165 9 1215 36 88 63 145 68 145 4 0 3 -80 0 -177z
m518 61 l35 -91 -10 -1549 c-6 -852 -14 -1713 -18 -1914 -6 -262 -8 -313 -9
-180 -15 1550 -32 3227 -38 3495 -3 187 -4 338 -1 335 3 -3 21 -46 41 -96z
m-664 -905 c-6 -431 -17 -1629 -25 -2663 -8 -1033 -16 -1880 -18 -1882 -2 -3
-7 580 -11 1293 -3 714 -11 1872 -18 2573 l-12 1276 39 89 c43 103 46 108 51
102 2 -2 -1 -356 -6 -788z m830 -754 c-5 -726 -12 -1597 -17 -1935 l-8 -615
-6 465 c-4 256 -12 1073 -18 1815 -6 743 -13 1447 -16 1565 l-5 215 39 -95 39
-95 -8 -1320z m-967 1008 c-1 -148 -6 -749 -12 -1338 -6 -588 -13 -1599 -17
-2245 -4 -647 -10 -1277 -13 -1400 -4 -135 -9 313 -14 1115 -9 1796 -17 2989
-23 3512 l-4 431 41 96 c23 53 42 96 43 96 0 0 0 -120 -1 -267z m1103 98 c15
-30 15 -160 5 -1310 -6 -702 -14 -1526 -18 -1831 l-8 -555 -6 360 c-6 328 -24
2009 -33 3070 l-3 430 24 -65 c13 -36 31 -80 39 -99z m-1250 -1163 c-3 -596
-8 -1317 -11 -1603 -3 -286 -8 -944 -11 -1461 -4 -518 -10 -1011 -14 -1095 -5
-122 -7 -73 -8 236 -2 332 -12 2112 -26 4265 l-3 565 34 88 c19 48 37 87 40
87 3 0 2 -487 -1 -1082z m-133 580 c-10 -1819 -37 -4966 -43 -4976 -8 -16 -18
1186 -27 3439 l-6 1645 38 92 c21 51 38 92 39 92 1 0 0 -132 -1 -292z m-153
-2173 c-14 -2306 -24 -3279 -31 -3170 -3 50 -12 1247 -19 2660 l-13 2570 34
80 34 80 3 -245 c2 -135 -2 -1023 -8 -1975z m1659 2042 l40 -102 -9 -565 c-5
-311 -12 -1139 -16 -1840 -3 -701 -10 -1313 -13 -1360 -4 -47 -10 419 -14
1035 -7 1064 -20 2097 -32 2673 -4 144 -4 262 -1 262 2 0 23 -46 45 -103z
m144 -262 l35 -91 -8 -539 c-5 -297 -12 -1075 -16 -1730 -4 -654 -10 -1262
-13 -1350 -4 -101 -9 138 -14 655 -17 1759 -27 2656 -33 2905 -4 166 -3 256 3
250 6 -5 26 -51 46 -100z m156 -1994 c-6 -900 -14 -1771 -18 -1936 -5 -258 -7
-179 -14 575 -12 1311 -26 2579 -32 2905 l-6 290 41 -99 40 -99 -11 -1636z
m-2119 1079 c-10 -486 -27 -2173 -31 -2895 -1 -205 -4 -303 -9 -260 -4 39 -10
599 -14 1245 -4 646 -11 1413 -16 1705 l-9 529 41 98 c22 54 42 97 44 95 2 -1
-1 -234 -6 -517z m2235 395 l36 -90 -10 -1420 c-11 -1427 -21 -2408 -26 -2403
-3 3 -17 1500 -30 3113 -3 358 -8 706 -11 775 -4 69 -4 123 -1 120 3 -3 22
-46 42 -95z m-2375 -716 c-9 -522 -27 -2218 -32 -2849 l-1 -225 -7 145 c-4 80
-11 642 -15 1250 -3 608 -10 1327 -15 1599 l-8 494 28 66 c38 91 53 122 57
118 1 -2 -2 -271 -7 -598z m2515 461 l36 -95 -11 -1495 c-7 -822 -15 -1661
-19 -1865 l-6 -370 -8 565 c-4 311 -12 1035 -17 1610 -5 575 -12 1205 -15
1400 -3 195 -4 352 -1 350 2 -3 20 -48 41 -100z m-2654 -706 c-6 -319 -13
-822 -16 -1119 -21 -2131 -19 -2046 -27 -1755 -3 151 -11 952 -17 1779 l-11
1504 36 89 c20 49 39 87 41 84 2 -2 0 -264 -6 -582z m2819 -946 c-5 -728 -12
-1591 -17 -1918 l-8 -595 -6 455 c-4 250 -12 1038 -18 1750 -6 712 -13 1414
-16 1560 l-5 265 39 -97 39 -98 -8 -1322z m-2954 1170 c-3 -68 -8 -393 -11
-723 -12 -1374 -27 -2850 -30 -2853 -5 -6 -15 893 -25 2204 -8 951 -7 1329 0
1350 21 55 63 144 68 144 2 0 2 -55 -2 -122z m-140 -345 c-3 -131 -11 -787
-16 -1458 -6 -671 -12 -1245 -15 -1275 -2 -30 -5 -190 -6 -355 l-2 -300 -8
330 c-4 182 -12 957 -19 1724 l-12 1394 38 88 c20 49 39 89 41 89 3 0 2 -107
-1 -237z m-146 -783 c-24 -2144 -33 -2895 -35 -2898 -4 -5 -16 1091 -25 2313
l-9 1210 36 87 c20 48 38 86 39 85 1 -1 -2 -360 -6 -797z m139 -4872 l1 -118
-50 0 -50 0 0 143 c0 78 3 172 6 209 7 66 7 66 31 57 30 -11 42 -5 45 24 3 39
15 -195 17 -315z m-132 -15 c-1 -59 -3 -13 -3 102 0 116 2 164 3 108 2 -56 2
-151 0 -210z m3114 290 l38 -16 3 -89 3 -89 -40 -39 c-23 -22 -44 -40 -48 -40
-4 0 -7 65 -7 145 0 80 3 145 7 145 3 0 23 -7 44 -17z m-2905 -8 c13 -1 24 2
24 7 0 5 5 6 10 3 6 -4 10 -82 10 -201 l0 -194 -50 0 -50 0 0 108 c0 150 11
293 22 286 5 -3 20 -7 34 -9z m109 -17 c13 -3 30 -1 39 4 14 8 16 1 16 -55 0
-35 3 -120 8 -188 l7 -124 6 85 5 85 2 -87 2 -88 -67 0 -66 0 6 143 c4 78 7
169 8 202 1 33 3 53 6 44 2 -9 15 -19 28 -21z m455 -140 l-1 -143 -44 80 c-27
48 -45 93 -45 113 0 31 12 42 25 22 5 -8 12 -7 23 2 13 11 14 11 7 -1 -5 -9
-4 -12 3 -7 5 3 13 0 16 -6 2 -7 4 -4 4 7 -2 36 2 75 7 75 3 0 5 -64 5 -142z
m1488 109 c17 -27 22 -56 27 -175 3 -78 4 -146 1 -151 -7 -10 -102 12 -98 22
1 4 2 72 2 152 0 124 2 147 16 152 9 3 20 0 24 -7 5 -8 10 -9 14 -2 3 6 2 13
-4 17 -10 6 -14 25 -6 25 2 0 13 -15 24 -33z m-1621 1 c-3 -8 -6 -5 -6 6 -1
11 2 17 5 13 3 -3 4 -12 1 -19z m2393 -111 l0 -134 -50 -27 -50 -27 0 101 0
102 45 50 c25 28 45 54 45 59 0 5 2 9 5 9 3 0 5 -60 5 -133z m-979 -21 c5 -6
9 6 9 35 0 55 7 66 45 65 21 0 33 7 41 22 9 17 12 -10 17 -130 4 -84 5 -153 3
-155 -2 -2 -24 5 -49 16 -61 26 -173 108 -225 166 -39 43 -41 48 -25 60 14 11
20 10 30 -4 12 -15 15 -14 29 7 16 21 54 31 54 14 0 -5 7 -9 15 -9 8 0 11 5 8
10 -4 6 0 8 10 4 13 -5 17 0 19 21 1 15 4 -4 5 -43 2 -38 8 -74 14 -79z m1162
133 c12 -7 23 -13 25 -14 6 -5 -26 -61 -42 -74 -14 -12 -16 -7 -16 43 0 61 1
62 33 45z m-2323 -169 l0 -170 -33 0 c-18 0 -38 5 -45 12 -15 15 -17 274 -2
283 6 3 11 -2 11 -12 1 -17 2 -17 6 0 5 18 5 18 19 0 11 -14 14 -15 15 -3 0 8
5 4 9 -10 7 -20 8 -16 9 23 1 26 3 47 6 47 3 0 5 -76 5 -170z m960 131 c12
-12 10 -11 -9 0 -14 9 -27 22 -29 30 -3 11 -1 11 10 -1 8 -8 20 -21 28 -29z
m-760 -2 c0 -6 7 -17 15 -25 17 -17 21 -39 5 -29 -5 3 -10 1 -10 -5 0 -6 8
-10 18 -8 15 3 18 -8 22 -80 6 -92 26 -114 23 -24 -2 52 -1 55 13 37 16 -22
47 -70 83 -128 l23 -37 -91 2 c-52 2 -91 7 -91 13 0 6 25 9 61 7 41 -3 59 0
55 6 -4 6 -29 10 -57 10 -34 -1 -54 3 -60 13 -6 10 -9 8 -9 -11 0 -20 -2 -22
-10 -10 -8 12 -12 13 -19 2 -7 -11 -9 -11 -13 0 -4 10 -3 161 1 214 1 7 8 15
17 18 12 5 14 1 9 -17 -6 -18 -5 -20 6 -9 10 10 11 19 2 42 -6 17 -7 30 -2 30
5 0 9 -5 9 -11z m-130 -24 l1 20 9 -20 c6 -13 9 -15 9 -5 1 13 2 13 11 0 8
-13 10 -12 11 5 4 57 18 -73 17 -151 -1 -78 -4 -90 -19 -91 -13 -1 -16 3 -12
15 4 13 2 12 -10 -3 -24 -29 -21 -35 13 -28 20 3 30 1 30 -6 0 -8 -16 -11 -47
-9 l-48 3 -3 105 c-2 58 0 125 3 150 7 44 7 44 21 20 12 -23 13 -23 14 -5z
m110 11 c0 -3 -4 -8 -10 -11 -5 -3 -10 -1 -10 4 0 6 5 11 10 11 6 0 10 -2 10
-4z m1308 -75 l32 -22 0 -106 0 -106 -37 7 c-21 3 -44 6 -50 6 -10 0 -13 35
-13 143 0 136 1 141 18 121 9 -11 32 -31 50 -43z m525 -182 c-11 -10 -162 -45
-256 -60 -74 -11 -184 -8 -206 6 -11 6 -16 195 -5 195 3 0 34 -7 68 -16 62
-16 230 -16 269 1 14 6 17 2 17 -31 0 -45 8 -41 13 6 3 28 13 39 53 65 l49 32
3 -95 c1 -53 -1 -99 -5 -103z m-2703 -275 c22 -9 40 -20 40 -25 0 -13 -23 -10
-44 6 -32 24 -87 18 -139 -15 -41 -26 -46 -27 -37 -9 16 29 70 59 107 59 18 0
51 -7 73 -16z m751 -1 c31 -19 43 -39 29 -48 -6 -4 -10 -2 -10 4 0 21 -60 41
-125 41 -58 0 -67 -2 -74 -22 -7 -19 -8 -20 -14 -3 -13 33 11 45 90 45 53 0
84 -5 104 -17z m739 -1 c19 -9 36 -26 38 -37 2 -12 0 -16 -5 -9 -13 18 -70 44
-97 44 -34 0 -77 -17 -91 -37 -13 -17 -28 -4 -17 14 13 19 67 42 102 43 19 0
51 -8 70 -18z m590 -12 c0 -20 -5 -30 -15 -30 -10 0 -15 10 -15 30 0 20 5 30
15 30 10 0 15 -10 15 -30z m236 8 c-3 -13 -6 -29 -6 -36 0 -7 -4 -10 -10 -7
-17 11 -12 65 6 65 12 0 15 -6 10 -22z m680 12 c16 -6 35 -19 42 -30 15 -25
11 -25 -30 0 -25 15 -51 20 -105 20 -72 0 -73 0 -73 -26 0 -14 -4 -23 -10 -19
-11 7 -14 48 -3 58 10 11 147 8 179 -3z m-3132 -277 c30 -26 99 -31 127 -10
21 16 39 51 41 81 3 31 14 34 23 7 28 -90 -110 -167 -195 -109 -42 29 -68 91
-48 116 11 13 14 9 19 -23 4 -24 17 -48 33 -62z m1451 67 c4 -17 18 -44 32
-60 21 -25 32 -30 70 -30 24 0 53 5 64 10 22 12 49 61 49 90 0 23 18 27 26 5
18 -46 -42 -119 -107 -130 -80 -14 -159 42 -159 111 0 42 16 45 25 4z m764 23
c-5 -33 5 -68 26 -88 19 -20 34 -25 75 -25 44 0 56 5 81 29 17 18 29 40 29 56
0 17 5 25 13 23 20 -7 19 -41 -3 -76 -32 -53 -111 -76 -175 -52 -71 27 -103
122 -47 139 1 1 1 -2 1 -6z m751 -69 c0 -56 -3 -75 -12 -72 -26 9 -18 148 7
148 3 0 5 -34 5 -76z m-2255 -4 c0 -42 -4 -65 -12 -67 -10 -4 -13 14 -13 67 0
53 3 71 13 68 8 -3 12 -26 12 -68z m223 39 c16 -31 12 -104 -7 -104 -9 0 -14
16 -15 50 -2 28 -6 58 -11 69 -12 28 17 15 33 -15z m-305 -347 c13 -12 17 -31
17 -84 0 -39 -4 -68 -10 -68 -5 0 -10 16 -10 36 l0 35 -47 -3 c-46 -3 -48 -4
-54 -38 -4 -22 -6 -4 -5 45 1 74 3 80 26 92 28 14 56 9 83 -15z m721 18 c14
-5 26 -15 26 -22 0 -9 -3 -9 -12 0 -17 17 -54 15 -72 -4 -23 -23 -21 -96 4
-119 18 -17 28 -17 75 0 20 7 20 6 1 -9 -25 -21 -70 -20 -91 0 -12 12 -15 32
-13 77 3 54 6 63 28 74 30 15 24 15 54 3z m199 -22 c41 -47 6 -148 -52 -148
-50 0 -71 25 -71 84 0 38 5 57 18 68 36 32 74 31 105 -4z m129 -40 l43 -73 3
68 c4 97 22 83 22 -18 0 -108 -15 -112 -67 -15 -21 38 -41 70 -45 70 -4 0 -9
-33 -11 -72 l-3 -73 -2 86 c-2 74 2 99 14 99 2 0 22 -33 46 -72z m203 62 c16
-7 11 -9 -21 -9 -79 -2 -82 -53 -3 -66 50 -9 67 -36 44 -71 -12 -18 -24 -24
-53 -24 -20 0 -44 5 -52 11 -11 8 -5 9 22 4 80 -13 111 46 36 65 -67 17 -68
18 -68 49 0 23 6 32 28 39 33 13 42 13 67 2z m705 -21 c0 -12 -17 -11 -25 1
-9 14 -51 12 -64 -3 -6 -8 -12 -35 -13 -62 -1 -37 3 -51 18 -62 19 -14 29 -13
69 3 18 7 18 6 6 -9 -17 -22 -69 -22 -93 0 -13 12 -18 30 -18 67 0 59 6 72 40
84 26 10 80 -3 80 -19z m383 3 c12 -11 17 -30 17 -68 0 -43 -4 -56 -22 -68
-55 -39 -118 -4 -118 65 0 22 5 49 11 60 21 39 74 45 112 11z m-2889 -4 c8
-13 7 -23 -2 -39 -10 -15 -11 -24 -3 -32 6 -6 11 -27 10 -46 l-1 -36 -7 31
c-12 47 -19 54 -62 54 -39 0 -39 0 -39 -40 0 -22 -4 -40 -10 -40 -6 0 -10 35
-10 85 l0 86 56 -3 c41 -2 60 -8 68 -20z m119 15 c-51 -4 -53 -5 -53 -34 0
-27 2 -29 40 -29 22 0 40 -4 40 -10 0 -5 -18 -10 -41 -10 -39 0 -40 -1 -37
-32 3 -32 5 -33 58 -39 l55 -6 -65 1 -65 1 -3 83 -3 82 63 -2 63 -2 -52 -3z
m109 -70 l3 -78 50 -6 50 -6 -60 1 -60 1 -3 83 c-2 50 1 82 7 82 6 0 11 -35
13 -77z m158 -8 c0 -50 -4 -85 -10 -85 -6 0 -10 35 -10 85 0 50 4 85 10 85 6
0 10 -35 10 -85z m354 63 c8 -13 8 -23 -1 -38 -8 -12 -9 -21 -3 -25 6 -3 10
-19 10 -35 0 -37 -26 -52 -83 -48 l-42 3 -3 83 -3 83 57 -3 c41 -2 60 -8 68
-20z m111 -139 l50 -6 -57 -1 -57 -2 -3 43 c-2 23 -1 62 2 87 4 38 6 33 10
-35 l5 -80 50 -6z m148 154 c-51 -4 -53 -5 -53 -34 0 -27 2 -29 40 -29 22 0
40 -4 40 -10 0 -5 -18 -10 -40 -10 -39 0 -40 -1 -40 -34 0 -35 0 -35 53 -39
50 -4 50 -4 -8 -3 l-60 1 -3 83 -3 82 63 -2 63 -2 -52 -3z m965 0 c-28 -4 -28
-5 -28 -84 0 -46 -4 -79 -10 -79 -6 0 -10 33 -10 79 l0 80 -32 4 c-18 2 -1 4
37 4 39 0 58 -2 43 -4z m183 -9 c10 -12 10 -22 2 -45 -7 -17 -7 -31 -2 -35 5
-3 9 -22 8 -42 l-1 -37 -7 31 c-12 47 -19 54 -62 54 -39 0 -39 0 -39 -40 0
-22 -4 -40 -10 -40 -6 0 -10 35 -10 85 l0 85 54 0 c37 0 58 -5 67 -16z m69
-54 c0 -65 2 -71 25 -82 19 -8 31 -8 50 0 23 11 25 17 25 82 0 40 4 70 10 70
6 0 10 -30 10 -69 0 -61 -3 -72 -22 -85 -12 -9 -34 -16 -48 -16 -14 0 -36 7
-48 16 -19 13 -22 24 -22 85 0 39 4 69 10 69 6 0 10 -30 10 -70z m423 63 l-33
-4 0 -80 c0 -46 -4 -79 -10 -79 -6 0 -10 33 -10 79 l0 80 -32 4 c-18 2 1 4 42
4 41 0 60 -2 43 -4z m87 -78 c0 -50 -4 -85 -10 -85 -6 0 -10 35 -10 85 0 50 4
85 10 85 6 0 10 -35 10 -85z m273 63 c8 -13 27 -45 43 -73 l29 -50 6 75 5 75
2 -87 c2 -110 -9 -113 -63 -15 l-40 72 -3 -72 c-4 -102 -22 -92 -22 12 0 68 3
85 15 85 8 0 21 -10 28 -22z"/>
<path d="M3470 2420 c0 -5 5 -10 11 -10 5 0 7 5 4 10 -3 6 -8 10 -11 10 -2 0
-4 -4 -4 -10z"/>
<path d="M2855 1544 c-9 -9 -15 -26 -13 -38 2 -17 11 -22 51 -24 46 -3 47 -2
47 25 0 16 -5 34 -12 41 -17 17 -54 15 -73 -4z"/>
<path d="M3767 1542 c-24 -26 -22 -87 3 -112 24 -24 38 -25 68 -4 27 19 31 93
6 118 -21 21 -57 20 -77 -2z"/>
<path d="M5198 1549 c-13 -7 -18 -23 -18 -59 0 -42 4 -52 25 -66 38 -25 72 -7
81 42 13 68 -37 114 -88 83z"/>
<path d="M2292 1528 c3 -30 6 -33 37 -33 37 0 58 22 48 49 -4 11 -19 16 -47
16 -40 0 -41 -1 -38 -32z"/>
<path d="M3030 1529 c0 -29 1 -30 42 -27 33 2 44 8 46 22 5 24 -14 36 -55 36
-30 0 -33 -3 -33 -31z"/>
<path d="M3034 1476 c-19 -48 20 -81 65 -56 25 13 28 55 5 64 -28 11 -64 6
-70 -8z"/>
<path d="M4442 1528 c3 -36 20 -45 64 -34 20 5 25 12 22 34 -3 24 -8 27 -46
30 l-43 3 3 -33z"/>
</g>
</svg>
