<?xml version="1.0" standalone="no"?>
<!DOCTYPE svg PUBLIC "-//W3C//DTD SVG 20010904//EN"
 "http://www.w3.org/TR/2001/REC-SVG-20010904/DTD/svg10.dtd">
<svg version="1.0" xmlns="http://www.w3.org/2000/svg"
 width="1031.000000pt" height="712.000000pt" viewBox="0 0 1031.000000 712.000000"
 preserveAspectRatio="xMidYMid meet">

<g transform="translate(0.000000,712.000000) scale(0.100000,-0.100000)"
fill="#000000" stroke="none">
<path d="M1362 4613 l3 -1228 138 -3 137 -3 0 1121 0 1120 3300 0 3300 0 -2
-1487 -3 -1488 -977 -3 -978 -2 0 -115 0 -115 1105 0 1105 0 0 1715 0 1715
-3565 0 -3565 0 2 -1227z"/>
<path d="M2428 2997 c-86 -25 -149 -85 -179 -172 -22 -66 -17 -201 9 -260 44
-95 113 -144 218 -153 108 -8 179 27 233 118 33 55 28 67 -31 85 -28 8 -52 14
-53 12 -1 -1 -7 -16 -14 -34 -20 -50 -54 -75 -108 -80 -60 -5 -107 22 -131 75
-22 52 -22 196 1 239 52 97 176 107 228 18 14 -23 27 -34 36 -31 8 4 32 9 54
12 43 7 45 11 25 57 -39 92 -174 145 -288 114z"/>
<path d="M3252 3000 c-125 -26 -212 -145 -212 -289 0 -122 50 -216 141 -266
49 -27 62 -30 149 -30 100 0 133 9 207 54 l43 26 0 118 0 117 -125 0 -125 0 0
-50 0 -50 65 0 65 0 0 -39 c0 -36 -3 -40 -45 -60 -91 -43 -183 -20 -228 57
-24 41 -33 143 -17 201 21 80 103 131 185 115 35 -6 87 -46 96 -72 4 -11 18
-12 63 -7 56 7 57 8 51 34 -10 41 -57 94 -106 118 -51 25 -145 36 -207 23z"/>
<path d="M4451 3000 c-86 -18 -169 -97 -192 -183 -6 -23 -9 -82 -7 -131 5
-131 42 -200 135 -246 98 -49 245 -36 323 29 149 123 117 429 -53 509 -52 25
-145 34 -206 22z m118 -100 c76 -21 115 -89 114 -196 -1 -119 -60 -194 -154
-194 -102 0 -159 71 -159 197 0 81 15 126 52 161 41 37 91 48 147 32z"/>
<path d="M1670 2711 l0 -291 60 0 60 0 0 121 0 122 45 -5 c25 -3 52 -12 61
-19 9 -8 48 -60 86 -116 l68 -103 70 0 70 0 -56 88 c-30 48 -73 104 -95 125
-44 43 -46 47 -21 47 28 0 81 37 102 72 28 47 27 125 -3 168 -43 65 -69 73
-268 78 l-179 5 0 -292z m313 178 c30 -16 37 -28 37 -65 0 -53 -28 -68 -136
-72 l-94 -4 0 76 0 76 86 0 c47 0 95 -5 107 -11z"/>
<path d="M3690 2711 l0 -291 55 0 55 0 0 120 0 120 36 0 c64 0 80 -15 171
-152 l58 -88 68 0 c37 0 67 2 67 5 0 15 -131 204 -153 222 -34 26 -34 29 2 36
40 8 88 52 102 94 15 46 5 117 -22 155 -37 51 -75 61 -266 66 l-173 5 0 -292z
m325 164 c30 -29 32 -64 6 -96 -17 -22 -28 -24 -120 -27 l-101 -4 0 76 0 76
95 0 c88 0 98 -2 120 -25z"/>
<path d="M4902 2768 c3 -263 7 -277 79 -325 54 -35 185 -45 254 -19 54 21 102
73 112 123 4 21 7 130 8 243 l0 205 -57 3 -57 3 -3 -221 -3 -222 -28 -24 c-37
-32 -112 -34 -150 -4 -39 31 -47 77 -47 283 l0 187 -56 0 -55 0 3 -232z"/>
<path d="M5480 2710 l0 -290 60 0 60 0 0 110 0 110 93 0 c119 0 171 23 205 90
40 79 20 188 -44 233 -33 24 -122 37 -261 37 l-113 0 0 -290z m269 179 c54
-19 68 -78 29 -124 -20 -22 -34 -26 -100 -32 l-78 -6 0 87 0 86 59 0 c32 0 72
-5 90 -11z"/>
<path d="M4335 2161 c-47 -12 -72 -28 -102 -68 -24 -31 -29 -48 -31 -113 -3
-63 0 -84 17 -118 32 -64 73 -87 153 -87 76 0 109 17 139 75 21 38 17 47 -26
55 -26 5 -33 1 -50 -27 -14 -23 -29 -34 -49 -36 -76 -9 -106 28 -106 133 0 60
3 69 29 96 40 40 83 39 122 -2 25 -27 34 -30 64 -25 32 6 34 8 24 34 -6 14
-15 32 -21 40 -29 34 -110 55 -163 43z"/>
<path d="M4712 2158 c-165 -37 -179 -317 -19 -377 86 -33 194 4 234 79 45 85
23 220 -44 268 -25 18 -104 44 -123 41 -3 -1 -24 -5 -48 -11z m120 -87 c27
-24 32 -36 36 -88 5 -74 -15 -119 -63 -139 -77 -32 -145 27 -145 126 0 110 98
167 172 101z"/>
<path d="M5487 2160 c-73 -14 -111 -77 -84 -141 16 -39 35 -51 132 -82 57 -18
71 -26 73 -45 10 -72 -112 -80 -146 -10 -11 24 -17 27 -45 21 -42 -8 -42 -7
-26 -49 23 -61 57 -79 150 -79 76 0 80 1 111 33 29 28 33 39 33 83 0 43 -4 54
-27 74 -15 13 -51 31 -80 40 -92 29 -108 37 -108 54 0 27 21 41 61 41 28 0 43
-6 57 -25 15 -18 29 -25 56 -25 41 0 41 -1 22 45 -23 53 -98 81 -179 65z"/>
<path d="M6972 2158 c-146 -32 -179 -266 -50 -361 36 -27 125 -34 164 -14 39
20 71 56 79 89 6 23 3 27 -26 33 -27 6 -36 4 -44 -10 -25 -44 -46 -56 -87 -53
-52 4 -79 37 -86 106 -6 70 12 120 53 139 47 22 103 4 117 -38 5 -16 78 -2 78
15 0 20 -38 65 -68 80 -40 20 -82 24 -130 14z"/>
<path d="M7832 2158 c-165 -37 -179 -317 -19 -377 86 -33 194 4 234 79 45 85
23 220 -44 268 -25 18 -104 44 -123 41 -3 -1 -24 -5 -48 -11z m120 -87 c27
-24 32 -36 36 -88 5 -74 -15 -119 -63 -139 -77 -32 -145 27 -145 126 0 110 98
167 172 101z"/>
<path d="M1390 1971 l0 -191 35 0 34 0 3 78 3 77 30 -3 c38 -4 55 -20 102 -93
38 -58 38 -59 86 -59 l48 0 -51 75 c-28 41 -55 75 -60 75 -6 0 -10 5 -10 10 0
6 6 10 14 10 8 0 28 11 43 24 24 21 28 32 28 75 0 42 -5 55 -27 78 -26 26 -32
27 -153 31 l-125 4 0 -191z m218 107 c7 -7 12 -21 12 -33 0 -35 -20 -45 -92
-45 l-68 0 0 45 0 45 68 0 c40 0 73 -5 80 -12z"/>
<path d="M1770 1970 l0 -190 145 0 145 0 0 30 0 30 -105 0 -105 0 0 50 0 50
95 0 95 0 0 35 0 35 -95 0 -95 0 0 40 0 39 103 3 102 3 3 33 3 32 -145 0 -146
0 0 -190z"/>
<path d="M2137 2153 c-4 -3 -7 -89 -7 -190 l0 -183 135 0 135 0 0 30 0 30 -95
0 -95 0 0 160 0 160 -33 0 c-19 0 -37 -3 -40 -7z"/>
<path d="M2450 1970 l0 -190 40 0 40 0 0 190 0 190 -40 0 -40 0 0 -190z"/>
<path d="M2645 1979 c-39 -99 -72 -185 -74 -191 -2 -5 15 -8 40 -6 38 3 43 6
54 38 l12 35 80 3 80 3 13 -41 c13 -38 15 -40 56 -40 l42 0 -76 190 -76 190
-40 0 -41 0 -70 -181z m139 13 l25 -62 -50 0 c-27 0 -49 4 -49 9 0 15 43 122
47 118 2 -2 14 -32 27 -65z"/>
<path d="M2990 1970 l0 -190 119 0 c137 0 164 7 186 49 24 48 19 88 -16 123
l-30 31 20 21 c23 24 28 75 10 108 -18 34 -70 48 -184 48 l-105 0 0 -190z
m224 98 c21 -35 -4 -53 -78 -56 l-66 -3 0 41 0 41 66 -3 c51 -2 70 -7 78 -20z
m4 -140 c19 -19 15 -66 -7 -78 -11 -5 -47 -10 -80 -10 l-61 0 0 50 0 50 68 0
c40 0 73 -5 80 -12z"/>
<path d="M3380 1971 l0 -191 135 0 135 0 0 30 0 30 -95 0 -94 0 -3 158 -3 157
-37 3 -38 3 0 -190z"/>
<path d="M3707 2153 c-4 -3 -7 -89 -7 -190 l0 -183 150 0 150 0 0 30 0 30
-110 0 -110 0 0 50 0 50 95 0 95 0 0 35 0 35 -95 0 -95 0 0 40 0 40 105 0 105
0 0 35 0 35 -138 0 c-76 0 -142 -3 -145 -7z"/>
<path d="M5010 1970 l0 -190 35 0 34 0 3 123 3 122 75 -122 75 -123 43 0 42 0
0 191 0 190 -37 -3 -38 -3 -5 -119 -5 -120 -74 122 -74 122 -38 0 -39 0 0
-190z"/>
<path d="M5730 2125 l0 -35 55 0 55 0 0 -155 0 -155 40 0 40 0 0 155 0 155 55
0 55 0 0 35 0 35 -150 0 -150 0 0 -35z"/>
<path d="M6080 1970 l0 -190 40 0 40 0 0 81 c0 70 2 80 16 75 9 -3 24 -6 35
-6 12 0 36 -26 69 -75 51 -75 51 -75 96 -75 l45 0 -23 41 c-13 23 -40 61 -60
84 l-37 41 33 12 c39 14 60 50 59 98 -2 81 -48 104 -210 104 l-103 0 0 -190z
m230 101 c10 -21 4 -51 -14 -63 -6 -4 -39 -8 -73 -8 l-63 0 0 45 0 45 70 0
c58 0 71 -3 80 -19z"/>
<path d="M6472 2000 l3 -160 32 -32 c28 -28 40 -33 96 -36 47 -3 74 1 101 13
59 28 66 53 66 225 l0 150 -34 0 -33 0 -6 -146 c-4 -110 -9 -150 -20 -161 -21
-22 -82 -21 -107 2 -18 17 -20 30 -20 162 l0 143 -41 0 -40 0 3 -160z"/>
<path d="M7212 2128 c3 -33 4 -33 61 -36 l57 -3 0 -154 0 -155 35 0 35 0 0
155 0 154 58 3 c56 3 57 3 60 36 l3 32 -156 0 -156 0 3 -32z"/>
<path d="M7567 2153 c-4 -3 -7 -89 -7 -190 l0 -183 40 0 40 0 0 190 0 190 -33
0 c-19 0 -37 -3 -40 -7z"/>
<path d="M8130 1970 l0 -190 35 0 34 0 3 123 3 122 75 -122 75 -123 43 0 42 0
0 191 0 190 -37 -3 -38 -3 -5 -119 -5 -120 -74 122 -74 122 -38 0 -39 0 0
-190z"/>
</g>
</svg>
