<?xml version="1.0" standalone="no"?>
<!DOCTYPE svg PUBLIC "-//W3C//DTD SVG 20010904//EN"
 "http://www.w3.org/TR/2001/REC-SVG-20010904/DTD/svg10.dtd">
<svg version="1.0" xmlns="http://www.w3.org/2000/svg"
 width="158.000000pt" height="80.000000pt" viewBox="0 0 158.000000 80.000000"
 preserveAspectRatio="xMidYMid meet">

<g transform="translate(0.000000,80.000000) scale(0.100000,-0.100000)"
fill="#000000" stroke="none">
<path d="M103 241 c-18 -33 -33 -64 -33 -70 0 -17 27 -13 34 4 4 11 20 15 55
15 34 0 51 -4 55 -15 5 -13 36 -22 36 -10 0 2 -16 34 -36 70 -47 86 -67 87
-111 6z m71 13 c10 -27 7 -34 -19 -34 -23 0 -24 2 -13 25 13 29 23 32 32 9z"/>
<path d="M280 230 c0 -56 3 -70 15 -70 11 0 15 13 15 53 l1 52 34 -40 35 -40
26 33 c14 17 30 32 35 32 5 0 9 -20 9 -45 0 -33 4 -45 15 -45 12 0 15 14 15
70 0 66 -1 70 -22 70 -14 0 -35 -13 -51 -32 l-27 -33 -28 33 c-16 18 -38 32
-50 32 -21 0 -22 -5 -22 -70z"/>
<path d="M530 229 l0 -71 75 4 c41 2 79 8 85 14 7 7 8 30 3 65 l-8 54 -78 3
-77 3 0 -72z m128 34 c2 -9 -11 -13 -47 -13 -39 0 -51 4 -51 16 0 12 10 14 47
12 26 -2 48 -9 51 -15z m5 -58 c-2 -5 -25 -11 -53 -13 -40 -2 -50 0 -50 13 0
13 10 15 53 13 28 -2 51 -7 50 -13z"/>
<path d="M740 245 c0 -69 25 -90 97 -82 58 6 73 25 73 89 0 41 -3 48 -19 48
-17 0 -20 -8 -23 -52 -3 -52 -4 -53 -36 -56 -46 -5 -62 12 -62 64 0 32 -4 44
-15 44 -12 0 -15 -13 -15 -55z"/>
<path d="M952 233 c2 -55 6 -68 21 -71 12 -3 17 3 17 22 0 23 4 26 33 26 26 0
37 -6 47 -25 7 -14 22 -25 33 -25 18 0 18 1 3 25 -15 23 -15 27 -1 41 18 18
20 45 3 62 -7 7 -42 12 -85 12 l-74 0 3 -67z m126 25 c3 -15 -4 -18 -42 -18
-40 0 -46 3 -46 21 0 18 5 20 42 17 31 -2 44 -8 46 -20z"/>
<path d="M1172 235 c-18 -36 -32 -68 -32 -70 0 -12 31 -3 36 10 4 10 21 15 54
15 33 0 50 -5 54 -15 5 -13 36 -22 36 -10 0 2 -14 34 -32 70 -27 55 -36 65
-58 65 -22 0 -31 -10 -58 -65z m72 19 c10 -26 7 -34 -14 -34 -11 0 -20 4 -20
9 0 17 12 41 20 41 4 0 11 -7 14 -16z"/>
<path d="M1350 230 c0 -56 3 -70 15 -70 11 0 15 12 15 52 l0 52 53 -52 c74
-73 87 -70 87 18 0 63 -2 70 -20 70 -17 0 -20 -7 -20 -46 l0 -47 -41 47 c-27
31 -49 46 -65 46 -23 0 -24 -3 -24 -70z"/>
<path d="M405 68 c6 -15 1 -18 -26 -19 -32 -2 -33 -2 -5 -6 35 -6 56 11 37 30
-10 10 -11 9 -6 -5z"/>
<path d="M1149 48 c-3 -22 -1 -34 4 -29 5 5 7 21 5 37 -3 27 -4 26 -9 -8z"/>
<path d="M1256 66 c4 -11 -3 -16 -28 -19 l-33 -4 34 -1 c25 -2 32 -6 27 -18
-3 -8 -2 -13 3 -10 5 3 9 17 9 31 0 14 -4 28 -9 31 -5 3 -6 -2 -3 -10z"/>
<path d="M901 44 c0 -11 3 -14 6 -6 3 7 2 16 -1 19 -3 4 -6 -2 -5 -13z"/>
<path d="M468 43 c6 -2 18 -2 25 0 6 3 1 5 -13 5 -14 0 -19 -2 -12 -5z"/>
<path d="M556 33 c-6 -14 -5 -15 5 -6 7 7 10 15 7 18 -3 3 -9 -2 -12 -12z"/>
<path d="M773 43 c9 -2 25 -2 35 0 9 3 1 5 -18 5 -19 0 -27 -2 -17 -5z"/>
</g>
</svg>
