<?xml version="1.0" encoding="UTF-8"?>
<svg width="128px" height="65px" viewBox="0 0 128 65" version="1.1" xmlns="http://www.w3.org/2000/svg" xmlns:xlink="http://www.w3.org/1999/xlink">
    <!-- Generator: sketchtool 51.3 (57544) - http://www.bohemiancoding.com/sketch -->
    <title>C5882ABF-ABE5-40DE-8CB5-59E44ABE13E4</title>
    <desc>Created with sketchtool.</desc>
    <defs></defs>
    <g id="Page-2" stroke="none" stroke-width="1" fill="none" fill-rule="evenodd">
        <g id="home/1" transform="translate(-653.000000, -40.000000)">
            <g id="Group-5" transform="translate(653.000000, 40.000000)">
                <g id="Amburan-Mall-Logo-Copy-3">
                    <path d="M8.69704452,43.1591541 L6.52626712,47.1291404 L10.8677774,47.1291404 L8.69704452,43.1591541 Z M13.782137,52.3315 L12.3934075,49.8480103 L5.00063699,49.8480103 L3.61190753,52.3315 L0.0720342466,52.3315 L6.74143493,40.3036062 L10.6530103,40.3036062 L17.3220548,52.3315 L13.782137,52.3315 Z" id="Fill-1" fill="#000000"></path>
                    <polygon id="Fill-2" fill="#000000" points="33.6133253 52.3315 33.6133253 44.3912158 33.5546473 44.3912158 28.0977637 50.8844932 22.6218253 44.3912158 22.5631473 44.3912158 22.5631473 52.3315 19.1206404 52.3315 19.1206404 40.3036062 23.1105719 40.3036062 28.0781747 46.2881473 33.0655 40.3036062 37.0554315 40.3036062 37.0554315 52.3315"></polygon>
                    <path d="M53.0355034,48.5177363 C53.0355034,47.950589 52.5265445,47.5014212 51.7639075,47.5014212 L44.4103596,47.5014212 L44.4103596,49.613387 L51.8031747,49.613387 C52.5069555,49.613387 53.0355034,49.1437842 53.0355034,48.5177363 Z M52.429089,44.0391473 C52.429089,43.4717329 51.9206644,43.0222089 51.1967603,43.0222089 L44.4103596,43.0222089 L44.4103596,44.9779521 L51.2751164,44.9779521 C51.979476,44.9779521 52.429089,44.5865719 52.429089,44.0391473 Z M56.516476,48.7524486 C56.516476,50.8252808 54.6778664,52.3315 51.7055856,52.3315 L40.9678973,52.3315 L40.9678973,40.3036062 L51.3725719,40.3036062 C52.8199349,40.3036062 54.1502089,40.8509418 55.0103904,41.7508801 C55.5780719,42.337839 55.8910068,43.1200205 55.8910068,43.882524 C55.8910068,44.7628733 55.5780719,45.4276096 54.8737123,46.053524 C55.9884623,46.7774281 56.516476,47.6376096 56.516476,48.7524486 Z" id="Fill-3" fill="#000000"></path>
                    <path d="M66.9805856,52.7031575 C62.2667945,52.7031575 59.4313253,50.8252808 59.4313253,48.2247911 L59.4313253,40.3036062 L62.8736541,40.3036062 L62.8736541,47.8531336 C62.8736541,49.1633733 64.3013836,49.9847774 66.9610411,49.9847774 C69.6211884,49.9847774 71.0681062,49.1633733 71.0681062,47.8531336 L71.0681062,40.3036062 L74.5104349,40.3036062 L74.5104349,48.2247911 C74.5104349,50.8252808 71.6743425,52.7031575 66.9805856,52.7031575" id="Fill-4" fill="#000000"></path>
                    <path d="M89.610024,44.2934486 C89.610024,43.5308116 88.9844658,43.0222089 87.8893048,43.0222089 L81.5526507,43.0222089 L81.5526507,45.7214897 L87.9088493,45.7214897 C88.9648767,45.7214897 89.610024,45.1341747 89.610024,44.2934486 Z M89.6491575,52.3315 L86.8131541,48.4394692 L81.5526507,48.4394692 L81.5526507,52.3315 L78.1099212,52.3315 L78.1099212,40.3036062 L88.2214281,40.3036062 C91.1161096,40.3036062 93.0134863,41.9660479 93.0134863,44.3521267 C93.0136199,46.131524 92.1525925,47.3837979 90.4905068,48.0289452 L93.5606884,52.3315 L89.6491575,52.3315 Z" id="Fill-5" fill="#000000"></path>
                    <path d="M102.500949,43.1591541 L100.330082,47.1291404 L104.671726,47.1291404 L102.500949,43.1591541 Z M107.586086,52.3315 L106.197356,49.8480103 L98.8048082,49.8480103 L97.4157226,52.3315 L93.8759384,52.3315 L100.545606,40.3036062 L104.457182,40.3036062 L111.12587,52.3315 L107.586086,52.3315 Z" id="Fill-6" fill="#000000"></path>
                    <polygon id="Fill-7" fill="#000000" points="123.994979 52.3315 116.425997 44.3912158 116.367318 44.3912158 116.367318 52.3315 112.924455 52.3315 112.924455 40.3036062 116.914387 40.3036062 124.522592 48.2439795 124.561726 48.2439795 124.561726 40.3036062 128.003565 40.3036062 128.003565 52.3315"></polygon>
                    <path d="M49.6380514,14.6609281 L66.0582089,31.0802842 L56.6451849,9.76219863 C54.0928219,10.9930582 51.7279349,12.6347979 49.6380514,14.6609281" id="Fill-8" fill="#E6AD27"></path>
                    <path d="M67.8060856,7.12840753 C64.4878801,7.18165411 61.2708253,7.84055822 58.2745479,9.04399315 L67.8073322,30.6328973 L67.8060856,7.12840753 Z" id="Fill-9" fill="#E6AD27"></path>
                    <path d="M46.9917945,13.1255479 C52.8039075,7.42576027 60.4885993,4.28666096 68.6296712,4.28666096 C76.771589,4.28666096 84.4562808,7.42576027 90.2689281,13.1255479 C95.8001164,18.549887 99.0420582,25.7147568 99.4837911,33.4046575 L104.10814,33.4046575 C102.995527,14.7722295 87.5402192,0.00418493151 68.6278904,0.00418493151 C49.7164521,0.00418493151 34.2607432,14.7722295 33.1479075,33.4046575 L37.7763973,33.4046575 C38.2183527,25.7147568 41.4604281,18.5500205 46.9917945,13.1255479" id="Fill-10" fill="#E6AD27"></path>
                    <path d="M43.3428459,23.3807226 L64.2096267,31.7439966 L48.4306986,15.9646678 C46.2994555,18.1661199 44.5903116,20.6713356 43.3428459,23.3807226" id="Fill-11" fill="#E6AD27"></path>
                    <path d="M71.3507671,31.2048527 L87.7628219,14.7949349 C85.607226,12.7049623 83.1612226,11.0201712 80.5167021,9.77733562 L71.3507671,31.2048527 Z" id="Fill-12" fill="#E6AD27"></path>
                    <path d="M88.9368733,15.9696096 L73.3083801,31.6002397 L93.9974795,23.307887 C92.7503699,20.6277945 91.0511096,18.1493356 88.9368733,15.9696096" id="Fill-13" fill="#E6AD27"></path>
                    <path d="M69.5935856,30.7837329 L78.8778562,9.08085616 C75.9520103,7.94001712 72.8208801,7.31294521 69.5944315,7.26094521 L69.5935856,30.7837329 Z" id="Fill-14" fill="#E6AD27"></path>
                    <path d="M40.9353082,33.4046575 L63.5663938,33.4046575 L42.6589658,25.0252226 C41.647726,27.6795822 41.0596096,30.4999144 40.9353082,33.4046575" id="Fill-15" fill="#E6AD27"></path>
                    <path d="M94.6880377,24.9496267 L73.5942466,33.4046575 L96.4470445,33.4046575 C96.3197158,30.472 95.7194897,27.6254452 94.6880377,24.9496267" id="Fill-16" fill="#E6AD27"></path>
                    <polygon id="Fill-17" fill="#000000" points="51.893774 64.8119007 52.6015171 64.8119007 52.6015171 59.9597842 55.6160479 63.6224897 58.6304452 59.9597842 58.6304452 64.8119007 59.3381884 64.8119007 59.3381884 59.0099829 58.6481199 59.0099829 55.6159144 62.7364418 52.5971986 59.0099829 51.893774 59.0099829"></polygon>
                    <polygon id="Fill-18" fill="#000000" points="79.9519144 64.8119007 85.4735753 64.8119007 85.4735753 64.3146952 80.6732808 64.3146952 80.6732808 59.0099829 79.9519144 59.0099829"></polygon>
                    <polygon id="Fill-19" fill="#000000" points="71.5751507 64.8119007 77.0967671 64.8119007 77.0967671 64.3146952 72.2965171 64.3146952 72.2965171 59.0099829 71.5751507 59.0099829"></polygon>
                    <path d="M61.7204384,64.8213836 L62.475774,64.8213836 L63.4485034,63.2088048 L67.6180308,63.2088048 L68.6157808,64.8213836 L69.3844726,64.8213836 L65.857911,59.0194658 L65.2073767,59.0194658 L61.7204384,64.8213836 Z M63.7502637,62.7005582 L65.5321986,59.7654075 L67.3292705,62.7005582 L63.7502637,62.7005582 Z" id="Fill-20" fill="#000000"></path>
                </g>
            </g>
        </g>
    </g>
</svg>