<?xml version="1.0" encoding="UTF-8"?>
<svg width="142px" height="34px" viewBox="0 0 142 34" version="1.1" xmlns="http://www.w3.org/2000/svg" xmlns:xlink="http://www.w3.org/1999/xlink">
    <!-- Generator: Sketch 49.3 (51167) - http://www.bohemiancoding.com/sketch -->
    <title>Fill 1</title>
    <desc>Created with Sketch.</desc>
    <defs></defs>
    <g id="Page-1" stroke="none" stroke-width="1" fill="none" fill-rule="evenodd">
        <g id="00.Azerpoct" transform="translate(-39.000000, -31.000000)" fill="#034C7D">
            <path d="M171.609393,52.1038301 C171.294312,52.1038301 170.859805,52.2230656 170.663303,52.5398913 C169.913714,53.8088976 168.612734,54.640991 167.193174,54.640991 C164.787715,54.640991 163.092036,52.4206558 163.092036,50.0419078 C163.092036,47.6631597 164.787715,45.4428246 167.193174,45.4428246 C168.612734,45.4428246 169.913714,46.274918 170.663303,47.5439243 C170.859805,47.8616017 171.294312,47.9799855 171.609393,47.9799855 C172.319173,47.9799855 172.871412,47.4246888 172.871412,46.7109792 C172.871412,46.1565342 172.437752,45.4428246 171.964283,45.0459407 C170.703111,43.7377571 169.046394,42.9448411 167.193174,42.9448411 C163.329194,42.9448411 160.608654,46.3941535 160.608654,50.0419078 C160.608654,53.2834097 162.761709,56.3528719 165.950636,57.001002 L165.950636,58.5578768 C165.950636,59.2715864 166.502875,59.786854 167.173693,59.786854 C167.883473,59.786854 168.434865,59.2715864 168.434865,58.5578768 L168.434865,57.0069638 C169.784124,56.7361289 170.991936,56.0454147 171.964283,55.0378748 C172.437752,54.640991 172.871412,53.9281331 172.871412,53.3719847 C172.871412,52.6582751 172.319173,52.1038301 171.609393,52.1038301 Z M119.298285,60.9894291 L118.718942,60.9894291 L118.718942,64.9667844 L121.165903,64.9667844 L121.165903,64.3995641 L119.298285,64.3995641 L119.298285,60.9894291 Z M117.453535,63.8170136 L117.442524,63.8170136 L115.707036,60.9894291 L115.160726,60.9894291 L115.160726,64.9667844 L115.740069,64.9667844 L115.740069,62.1391999 L115.75108,62.1391999 L117.484026,64.9667844 L118.032878,64.9667844 L118.032878,60.9894291 L117.453535,60.9894291 L117.453535,63.8170136 Z M113.930046,64.9667844 L114.510235,64.9667844 L114.510235,60.9894291 L113.930046,60.9894291 L113.930046,64.9667844 Z M113.930046,60.7160392 L114.510235,60.7160392 L114.510235,60.116455 L113.930046,60.116455 L113.930046,60.7160392 Z M111.028249,61.5234338 L112.751032,61.5234338 L111.01385,64.4676987 L111.01385,64.9667844 L113.460812,64.9667844 L113.460812,64.3995641 L111.662646,64.3995641 L113.460812,61.442524 L113.460812,60.9894291 L111.028249,60.9894291 L111.028249,61.5234338 Z M109.989836,64.9667844 L110.570026,64.9667844 L110.570026,60.9894291 L109.989836,60.9894291 L109.989836,64.9667844 Z M109.989836,60.7160392 L110.570026,60.7160392 L110.570026,60.116455 L109.989836,60.116455 L109.989836,60.7160392 Z M108.447463,62.6970517 C108.265359,62.6740563 108.12137,62.6536159 108.016343,62.6348789 C107.827464,62.5982566 107.690251,62.532677 107.603858,62.4381403 C107.518312,62.3444553 107.475115,62.2414018 107.475115,62.1272764 C107.478503,61.9356479 107.542875,61.7917136 107.667382,61.6954736 C107.785961,61.6026402 107.935032,61.5566494 108.114595,61.5566494 C108.45932,61.5634628 108.776096,61.6656647 109.063226,61.8624032 L109.386777,61.3667243 C109.035275,61.1035545 108.621096,60.9672854 108.145086,60.9570652 C107.749541,60.9596202 107.443776,61.0669322 107.22864,61.2781493 C107.006728,61.4910699 106.894925,61.7721249 106.894925,62.1196112 C106.894925,62.4091831 106.983859,62.6544676 107.160881,62.8563162 C107.331973,63.0530548 107.582683,63.1799554 107.912163,63.2361664 C108.096808,63.2642719 108.265359,63.288119 108.419512,63.3094111 C108.755768,63.3707322 108.922625,63.5487337 108.919237,63.8451191 C108.912462,64.207084 108.659211,64.3927507 108.161179,64.3995641 C107.741071,64.3961574 107.377711,64.263295 107.072794,64.003532 L106.691647,64.4566268 C107.099897,64.8185917 107.587765,65 108.15525,65 C109.031887,64.9889281 109.479947,64.6022645 109.499427,63.8417124 C109.499427,63.5589539 109.413881,63.3119661 109.244483,63.0990456 C109.072543,62.8818667 108.807434,62.7481526 108.447463,62.6970517 Z M101.446222,62.9993988 C101.446222,62.6536159 101.437752,62.4057764 101.422506,62.2558804 C101.401331,62.106836 101.351359,61.9858971 101.272588,61.8922121 C101.110813,61.6614063 100.882972,61.5489842 100.588218,61.5566494 L99.8936845,61.5566494 L99.8936845,64.3995641 L100.588218,64.3995641 C100.914311,64.3995641 101.151469,64.2837354 101.298845,64.0520779 C101.363217,63.9669096 101.404719,63.8578943 101.422506,63.7267353 C101.437752,63.5972796 101.446222,63.3554019 101.446222,62.9993988 Z M101.997614,62.1289797 C102.016248,62.2933544 102.026412,62.5761128 102.026412,62.9781068 C102.026412,63.4056512 102.011166,63.7037399 101.981521,63.8723729 C101.967122,63.9583928 101.945948,64.0350442 101.918844,64.1014754 C101.889199,64.1670549 101.852778,64.2351895 101.810429,64.3067308 C101.698626,64.4941008 101.542779,64.6482553 101.342889,64.7700458 C101.144693,64.9003532 100.902453,64.9667844 100.614475,64.9667844 L99.3134946,64.9667844 L99.3134946,60.9894291 L100.654284,60.9894291 C101.172643,60.9928359 101.56226,61.2159766 101.82144,61.6605546 C101.913762,61.809599 101.973051,61.9654568 101.997614,62.1289797 Z M97.5424331,62.7319706 C97.7609572,62.7294156 97.9235798,62.6629844 98.0328418,62.5352321 C98.1404099,62.4168483 98.1937704,62.2712106 98.1937704,62.0974675 C98.1903825,61.8896571 98.126011,61.7389093 98.0015031,61.646076 C97.903252,61.5643145 97.7609572,61.5234338 97.5746189,61.5234338 L96.6632548,61.5234338 L96.6632548,62.7319706 L97.5424331,62.7319706 Z M98.0015031,63.2012475 L98.8883043,64.9667844 L98.1988524,64.9667844 L97.4060673,63.2659753 L96.6632548,63.2659753 L96.6632548,64.9667844 L96.0830649,64.9667844 L96.0830649,60.9894291 L97.5797008,60.9894291 C97.899017,60.9894291 98.1598907,61.0763007 98.361475,61.2508955 C98.6037148,61.4493374 98.7307637,61.7320959 98.7409276,62.0991709 C98.7341517,62.6391373 98.4876769,63.007064 98.0015031,63.2012475 Z M93.1795744,64.9667844 L95.6273829,64.9667844 L95.6273829,64.3995641 L93.7597643,64.3995641 L93.7597643,63.2285013 L95.3538043,63.2285013 L95.3538043,62.6944966 L93.7597643,62.6944966 L93.7597643,61.5566494 L95.6273829,61.5566494 L95.6273829,60.9894291 L93.1795744,60.9894291 L93.1795744,64.9667844 Z M91.4102069,62.7541144 L90.597941,60.9894291 L89.9830244,60.9894291 L91.1357813,63.3307031 L91.1357813,64.9667844 L91.6837855,64.9667844 L91.6837855,63.3298515 L92.8373894,60.9894291 L92.2224727,60.9894291 L91.4102069,62.7541144 Z M87.5191229,62.7319706 C87.7368,62.7294156 87.8994226,62.6629844 88.0086847,62.5352321 C88.1162527,62.4168483 88.1696132,62.2712106 88.1696132,62.0974675 C88.1662253,61.8896571 88.1018538,61.7389093 87.9773459,61.646076 C87.8790948,61.5643145 87.7368,61.5234338 87.5504617,61.5234338 L86.6390977,61.5234338 L86.6390977,62.7319706 L87.5191229,62.7319706 Z M87.9773459,63.2012475 L88.8641472,64.9667844 L88.1746952,64.9667844 L87.3819101,63.2659753 L86.6390977,63.2659753 L86.6390977,64.9667844 L86.0589077,64.9667844 L86.0589077,60.9894291 L87.5563906,60.9894291 C87.8748598,60.9894291 88.1357335,61.0763007 88.3373178,61.2508955 C88.5804046,61.4493374 88.7066065,61.7320959 88.7167705,62.0991709 C88.7099945,62.6391373 88.4635197,63.007064 87.9773459,63.2012475 Z M123.6171,63.3451817 L122.048469,63.3451817 L122.048469,63.5538438 C122.051857,63.8033867 122.12724,64.006087 122.275463,64.1585381 C122.42284,64.319506 122.609179,64.3995641 122.835326,64.3995641 C122.972538,64.3995641 123.09027,64.3689036 123.188521,64.3092858 C123.288467,64.2581849 123.368931,64.190902 123.430761,64.1099922 C123.506144,64.0239723 123.556116,63.9115503 123.580679,63.7727261 C123.598466,63.6841512 123.611171,63.5410686 123.6171,63.3451817 Z M124.16341,62.050625 C124.189667,62.2064828 124.202372,62.5164951 124.202372,62.9781068 C124.202372,63.432905 124.189667,63.7395105 124.16341,63.9004784 C124.149858,63.9856467 124.131224,64.0563363 124.110896,64.113399 C124.088875,64.1670549 124.062618,64.2241176 124.034667,64.2845871 C123.942345,64.4685504 123.793274,64.63037 123.588302,64.7700458 C123.386718,64.9156835 123.136008,64.9923349 122.834479,65 C122.444015,64.9923349 122.119617,64.855214 121.862978,64.5877859 C121.607186,64.319506 121.475902,63.9856467 121.46828,63.5879111 L121.46828,62.7788132 L123.621335,62.7788132 C123.6171,62.4943513 123.603548,62.2933544 123.580679,62.1766739 C123.556116,62.0421082 123.506144,61.9313895 123.430761,61.8453696 C123.369778,61.7644598 123.288467,61.6963252 123.188521,61.6409659 C123.091117,61.5881616 122.973385,61.5600561 122.836173,61.5566494 C122.649834,61.5600561 122.493141,61.6154154 122.362704,61.7235791 C122.238196,61.8368528 122.151803,61.9739736 122.105218,62.1340898 L121.489454,62.1340898 C121.550438,61.8019338 121.697815,61.5234338 121.930737,61.2968864 C122.16366,61.0737456 122.46519,60.9596202 122.834479,60.9570652 C123.136008,60.9596202 123.386718,61.0345683 123.588302,61.1793542 C123.793274,61.3232885 123.942345,61.4876631 124.034667,61.6707748 C124.092263,61.7678665 124.135459,61.8939155 124.16341,62.050625 Z M104.634302,63.3451817 L103.065672,63.3451817 L103.065672,63.5538438 C103.06906,63.8033867 103.144442,64.006087 103.291819,64.1585381 C103.440042,64.319506 103.626381,64.3995641 103.852528,64.3995641 C103.989741,64.3995641 104.107473,64.3689036 104.204877,64.3092858 C104.305669,64.2581849 104.386133,64.190902 104.447964,64.1099922 C104.522499,64.0239723 104.573319,63.9115503 104.597881,63.7727261 C104.615668,63.6841512 104.627526,63.5410686 104.634302,63.3451817 Z M105.180612,62.050625 C105.206869,62.2064828 105.219574,62.5164951 105.219574,62.9781068 C105.219574,63.432905 105.206869,63.7395105 105.180612,63.9004784 C105.166213,63.9856467 105.149273,64.0563363 105.128099,64.113399 C105.10523,64.1670549 105.07982,64.2241176 105.051869,64.2845871 C104.9587,64.4685504 104.810476,64.63037 104.605504,64.7700458 C104.40392,64.9156835 104.152363,64.9923349 103.850834,65 C103.461217,64.9923349 103.136819,64.855214 102.88018,64.5877859 C102.624389,64.319506 102.492258,63.9856467 102.485482,63.5879111 L102.485482,62.7788132 L104.638537,62.7788132 C104.634302,62.4943513 104.62075,62.2933544 104.597881,62.1766739 C104.573319,62.0421082 104.523346,61.9313895 104.447964,61.8453696 C104.386133,61.7644598 104.305669,61.6963252 104.205724,61.6409659 C104.107473,61.5881616 103.990588,61.5600561 103.853375,61.5566494 C103.667883,61.5600561 103.509496,61.6154154 103.379906,61.7235791 C103.255398,61.8368528 103.169005,61.9739736 103.12242,62.1340898 L102.506657,62.1340898 C102.56764,61.8019338 102.715017,61.5234338 102.94794,61.2968864 C103.180863,61.0737456 103.481545,60.9596202 103.850834,60.9570652 C104.152363,60.9596202 104.40392,61.0345683 104.605504,61.1793542 C104.810476,61.3232885 104.9587,61.4876631 105.051869,61.6707748 C105.109465,61.7678665 105.152661,61.8939155 105.180612,62.050625 Z M84.9129268,63.3451817 L83.3442965,63.3451817 L83.3442965,63.5538438 C83.3476845,63.8033867 83.4230668,64.006087 83.5704435,64.1585381 C83.7178202,64.319506 83.9050056,64.3995641 84.1311526,64.3995641 C84.2683654,64.3995641 84.3860974,64.3689036 84.4835015,64.3092858 C84.5834467,64.2581849 84.664758,64.190902 84.7257414,64.1099922 C84.8011238,64.0239723 84.8519433,63.9115503 84.8765061,63.7727261 C84.8942929,63.6841512 84.9061508,63.5410686 84.9129268,63.3451817 Z M85.459237,62.050625 C85.4854938,62.2064828 85.4981986,62.5164951 85.4981986,62.9781068 C85.4981986,63.432905 85.4854938,63.7395105 85.459237,63.9004784 C85.4448381,63.9856467 85.4278983,64.0563363 85.4067235,64.113399 C85.3838547,64.1670549 85.3584449,64.2241176 85.3304941,64.2845871 C85.2373249,64.4685504 85.0891012,64.63037 84.883282,64.7700458 C84.6825448,64.9156835 84.430988,64.9923349 84.1294586,65 C83.7389951,64.9923349 83.4154439,64.855214 83.1579582,64.5877859 C82.9030134,64.319506 82.7708825,63.9856467 82.7641066,63.5879111 L82.7641066,62.7788132 L84.9163147,62.7788132 C84.9129268,62.4943513 84.8993749,62.2933544 84.8765061,62.1766739 C84.8519433,62.0421082 84.8019707,61.9313895 84.7257414,61.8453696 C84.664758,61.7644598 84.5842937,61.6963252 84.4843485,61.6409659 C84.3860974,61.5881616 84.2683654,61.5600561 84.1319996,61.5566494 C83.9456613,61.5600561 83.7881206,61.6154154 83.6585308,61.7235791 C83.5340229,61.8368528 83.4476296,61.9739736 83.400198,62.1340898 L82.7852814,62.1340898 C82.8462649,61.8019338 82.9936416,61.5234338 83.2265646,61.2968864 C83.4594875,61.0737456 83.7601699,60.9596202 84.1294586,60.9570652 C84.430988,60.9596202 84.6825448,61.0345683 84.883282,61.1793542 C85.0891012,61.3232885 85.2373249,61.4876631 85.3304941,61.6707748 C85.3880896,61.7678665 85.4304392,61.8939155 85.459237,62.050625 Z M81.6062677,62.6944966 L80.0859161,62.6944966 L80.0859161,60.9894291 L79.5065731,60.9894291 L79.5065731,64.9667844 L80.0859161,64.9667844 L80.0859161,63.2285013 L81.6062677,63.2285013 L81.6062677,64.9667844 L82.1864577,64.9667844 L82.1864577,60.9894291 L81.6062677,60.9894291 L81.6062677,62.6944966 Z M179.766779,45.669372 C180.447761,45.669372 181,45.1140753 181,44.4301746 C181,43.7454222 180.447761,43.1901255 179.766779,43.1901255 L178.072794,43.1901255 L178.072794,39.8387565 C178.072794,39.1540042 177.520554,38.5995591 176.840419,38.5995591 C176.159437,38.5995591 175.607198,39.1540042 175.607198,39.8387565 L175.607198,52.6574234 C175.607198,54.6546179 176.7896,56.4482603 178.618257,57.225846 C178.775797,57.2922772 178.937573,57.3237895 179.098502,57.3237895 C179.578746,57.3237895 180.035275,57.0393277 180.234319,56.5666441 C180.499427,55.9363994 180.205521,55.2090629 179.578746,54.9424864 C178.663994,54.5532677 178.072794,53.6555948 178.072794,52.6574234 L178.072794,45.669372 L179.766779,45.669372 Z M156.646422,50.0018787 C156.646422,47.6631597 154.990552,45.4428246 152.545284,45.4428246 C150.139825,45.4428246 148.405185,47.6631597 148.405185,50.0018787 C148.405185,52.4206558 150.139825,54.640991 152.545284,54.640991 C154.990552,54.640991 156.646422,52.4206558 156.646422,50.0018787 Z M159.169613,50.0018787 C159.169613,53.7288395 156.410111,57.1389745 152.545284,57.1389745 C148.681304,57.1389745 145.920955,53.7288395 145.920955,50.0018787 C145.920955,46.3549761 148.681304,42.904812 152.545284,42.904812 C156.410111,42.904812 159.169613,46.3549761 159.169613,50.0018787 Z M141.99938,50.0419078 C141.99938,47.6631597 140.263892,45.4428246 137.858433,45.4428246 C135.414012,45.4428246 133.718333,47.6631597 133.718333,50.0419078 C133.718333,52.4606849 135.414012,54.6801683 137.858433,54.6801683 C140.263892,54.6801683 141.99938,52.4606849 141.99938,50.0419078 Z M144.483609,50.0419078 C144.483609,53.7288395 141.72326,57.1790035 137.858433,57.1790035 C136.202562,57.1790035 134.665271,56.465294 133.481175,55.433907 L133.481175,62.6902382 C133.481175,63.4039478 132.929783,63.9192155 132.220003,63.9192155 C131.549185,63.9192155 130.997793,63.4039478 130.997793,62.6902382 L130.997793,44.4114376 C130.997793,43.7769344 131.549185,43.143283 132.220003,43.143283 C132.929783,43.143283 133.481175,43.7769344 133.481175,44.4114376 L133.481175,44.6890859 C134.625462,43.697728 136.281333,42.9448411 137.858433,42.9448411 C141.72326,42.9448411 144.483609,46.3941535 144.483609,50.0419078 Z M127.855451,43.1824604 C126.553623,43.1824604 125.291604,43.8169635 124.305705,44.6890859 L124.305705,44.4514666 C124.305705,43.7377571 123.754313,43.1824604 123.044533,43.1824604 C122.373715,43.1824604 121.822322,43.7377571 121.822322,44.4514666 L121.822322,55.6323489 C121.822322,56.3460585 122.373715,56.9013552 123.044533,56.9013552 C123.754313,56.9013552 124.305705,56.3460585 124.305705,55.6323489 L124.305705,50.7155883 C124.305705,48.3368403 125.725264,46.1957115 128.012144,45.6804439 C128.682962,45.6012374 129.116623,45.1651762 129.116623,44.4114376 C129.116623,43.657699 128.406843,43.1824604 127.855451,43.1824604 Z M109.239401,51.3100624 C109.712023,53.1343654 111.210352,54.6801683 113.182998,54.6801683 C115.114988,54.6801683 116.612471,53.1343654 117.125749,51.3100624 L109.239401,51.3100624 Z M106.557822,50.0810851 C106.557822,49.3673756 107.14987,48.8129305 107.819841,48.8129305 L117.125749,48.8129305 C116.65228,46.9094211 115.15395,45.4428246 113.182998,45.4428246 C111.847291,45.4428246 110.780927,45.8908093 109.955109,46.8123294 C109.889891,46.8838706 108.972598,47.4681245 108.298392,46.6794669 C107.644514,45.9138048 108.049376,45.1881716 108.171343,45.0493475 C109.414728,43.6304451 111.312838,42.9448411 113.182998,42.9448411 C117.046978,42.9448411 119.807327,46.3941535 119.807327,50.0810851 C119.807327,53.7288395 117.046978,57.1790035 113.182998,57.1790035 C109.318171,57.1790035 106.557822,53.7288395 106.557822,50.0810851 Z M95.0793787,56.5845294 L103.478157,56.5845294 C104.187937,56.5845294 104.740176,55.9500263 104.740176,55.3547005 C104.740176,54.640991 104.187937,54.0856942 103.478157,54.0856942 L97.7211486,54.0856942 L104.818946,45.6012374 C104.977334,45.4428246 105.134875,45.1251472 105.134875,44.8083214 C105.134875,44.1738183 104.503865,43.5793442 103.912664,43.5793442 L95.4342686,43.5793442 C94.8032591,43.5793442 94.1722497,44.1738183 94.1722497,44.8083214 C94.1722497,45.522031 94.8032591,46.0372987 95.4342686,46.0372987 L101.191277,46.0372987 L94.133288,54.5226071 C93.9359387,54.7602264 93.8173598,55.0378748 93.8173598,55.3547005 C93.8173598,55.9500263 94.3695989,56.5845294 95.0793787,56.5845294 Z M88.8175626,50.0419078 C88.8175626,47.6631597 87.1616921,45.4428246 84.7172715,45.4428246 C82.3118126,45.4428246 80.5763248,47.6631597 80.5763248,50.0419078 C80.5763248,52.4606849 82.3118126,54.6801683 84.7172715,54.6801683 C87.1616921,54.6801683 88.8175626,52.4606849 88.8175626,50.0419078 Z M90.3158924,56.8613261 C89.6459213,56.8613261 89.0945291,56.3068811 89.0945291,55.5931715 L89.0945291,55.433907 C87.9112805,56.465294 86.3333333,57.1790035 84.7172715,57.1790035 C80.8532913,57.1790035 78.0929425,53.7288395 78.0929425,50.0419078 C78.0929425,46.3941535 80.8532913,42.9448411 84.7172715,42.9448411 C86.3333333,42.9448411 87.9112805,43.6185216 89.0945291,44.6890859 L89.0945291,44.4114376 C89.0945291,43.7769344 89.6459213,43.143283 90.3158924,43.143283 C91.0256722,43.143283 91.5779114,43.7769344 91.5779114,44.4114376 L91.5779114,55.5931715 C91.5779114,56.3068811 91.0256722,56.8613261 90.3158924,56.8613261 Z M77.1146661,31.4326545 C77.6880801,32.0100949 77.6880801,32.9486486 77.1146661,33.526089 L60.1790495,50.5554721 L66.8364111,57.2488415 C67.4098251,57.8262819 67.4098251,58.7639839 66.8364111,59.3414243 C66.5585976,59.620776 66.1893088,59.7749305 65.7954573,59.7749305 C65.4024527,59.7749305 65.0323169,59.620776 64.7545034,59.3414243 L58.0979887,52.6480549 L55.5172023,55.2431302 L52.9364159,52.6480549 L46.2799012,59.3414243 C46.0012407,59.620776 45.6319519,59.7749305 45.2389473,59.7749305 C44.8450958,59.7749305 44.475807,59.620776 44.1979935,59.3414243 C43.6245795,58.7639839 43.6245795,57.8262819 44.1979935,57.2488415 L50.8553551,50.5554721 L44.1979935,43.861251 C43.6245795,43.2846622 43.6245795,42.3452569 44.1979935,41.7686681 C44.476654,41.4893164 44.8459428,41.3351619 45.2389473,41.3351619 C45.6319519,41.3351619 46.0020877,41.4893164 46.2799012,41.7686681 L55.5172023,51.0571128 L67.2353446,39.2740913 L41.9949658,39.2740913 L41.9949658,61.8436662 L69.0394388,61.8436662 L69.0394388,45.5015906 C69.0394388,45.5015906 71.3339417,43.1935322 71.5092692,43.0180857 C71.6845967,42.8417875 72.0344046,42.7906866 72.0344046,43.2361163 L72.0344046,64.855214 L39,64.855214 L39,36.2616918 L70.2311574,36.2616918 L75.0336053,31.4326545 C75.3114189,31.1533028 75.6807077,31 76.0737122,31 C76.4667168,31 76.8368525,31.1533028 77.1146661,31.4326545 Z" id="Fill-1"></path>
        </g>
    </g>
</svg>