<?xml version="1.0" encoding="UTF-8"?>
<svg width="287px" height="74px" viewBox="0 0 287 74" version="1.1" xmlns="http://www.w3.org/2000/svg" xmlns:xlink="http://www.w3.org/1999/xlink">
    <!-- Generator: Sketch 52 (66869) - http://www.bohemiancoding.com/sketch -->
    <title>pasha-development</title>
    <desc>Created with Sketch.</desc>
    <g id="Page-1" stroke="none" stroke-width="1" fill="none" fill-rule="evenodd">
        <g id="pasha-development" transform="translate(0.000000, -1.000000)">
            <polyline id="Path" fill="#9DC328" points="220.034016 50.8388115 217.404098 50.8352459 216.866803 49.9282377 215.97541 49.185123"></polyline>
            <polygon id="Path" fill="#007A49" points="11.539623 24.8541393 11.539623 11.9312705 32.5245492 11.9312705 32.5220902 32.9130738 27.7914344 32.9130738 16.2034426 21.3232377 15.6371311 20.754959"></polygon>
            <polygon id="Path" fill="#8ABE33" points="0.800186066 37.8618443 15.6381148 23.022418 30.4717623 37.8618443 27.1287295 41.2047541 9.93768443 41.2047541 9.93768443 46.9962295"></polygon>
            <polygon id="Path" fill="#007A49" points="11.539623 63.7920492 24.462418 63.7920492 20.9345902 60.2634836 20.3687705 59.6955738 32.5245492 47.5412705 32.5245492 42.8068033 11.5404098 42.8091393"></polygon>
            <polygon id="Path" fill="#8ABE33" points="37.4718443 74.534877 22.6358607 59.6966803 37.4718443 44.8587295 40.8178279 48.2039754 40.8178279 65.397418 46.6097951 65.394959"></polygon>
            <polygon id="Path" fill="#007A49" points="63.402541 63.7921721 42.4196311 63.7921721 42.4196311 42.8091393 47.1518852 42.8091393 58.7406148 54.3978689 59.3076639 54.9634426 59.8732377 54.3978689 63.4014344 50.8685656"></polygon>
            <polygon id="Path" fill="#8ABE33" points="74.1438934 37.7836475 59.3068033 52.6223361 44.4695902 37.7852459 47.8129918 34.4430738 65.0068033 34.4430738 65.0068033 28.6458197"></polygon>
            <polygon id="Path" fill="#007A49" points="63.4026639 11.932168 63.4026639 32.9151639 42.420123 32.9151639 42.420123 28.1813115 54.0097131 16.5929508 54.5755328 16.0259016 54.0097131 15.4581148 50.4806557 11.9325492"></polygon>
            <polygon id="Path" fill="#8ABE33" points="52.3084426 16.0257787 37.4740574 30.8601639 34.1272131 27.5145492 34.124877 10.3265533 28.3345082 10.3289385 37.4731967 1.18988484"></polygon>
            <path d="M91.1786066,22.9890984 C94.3228279,22.9890984 95.4473361,21.3577869 95.4473361,19.4013934 C95.4473361,17.297582 94.59,15.7862705 91.8908607,15.7862705 L89.457418,15.7862705 L89.457418,22.9890984 L91.1786066,22.9890984 Z M84.390123,11.8421189 L92.5436066,11.8421189 C97.2569262,11.8421189 100.637705,14.6010246 100.637705,19.2834836 C100.637705,23.4030738 97.2569262,26.8729918 91.0010656,26.8729918 L89.457418,26.8729918 L89.457418,32.8011885 L84.390123,32.8011885 L84.390123,11.8421189 Z" id="Shape" fill="#007A49"></path>
            <path d="M121.97791,31.645082 L123.403279,28.0281148 C125.270902,28.6804918 126.631967,28.9776639 128.944672,28.9776639 C131.466393,28.9776639 132.622131,28.2063934 132.622131,26.9325 C132.622131,23.5231967 122.660041,24.4415164 122.660041,17.3256148 C122.660041,13.2951639 126.486885,11.5449467 130.192623,11.5449467 C133.513525,11.5449467 135.113115,12.2567705 136.743443,12.9689754 L135.291393,16.4659426 C133.748361,16.022459 132.472131,15.6066393 130.341393,15.6066393 C128.236475,15.6066393 127.582377,16.4069262 127.582377,17.297459 C127.582377,20.082541 137.723361,20.082541 137.723361,26.7542213 C137.723361,31.3490164 133.335246,33.127377 129.004918,33.127377 C125.565984,33.127377 123.54959,32.5040164 121.97791,31.645082 Z" id="Path" fill="#007A49"></path>
            <polygon id="Path" fill="#007A49" points="140.386475 11.8421189 145.427459 11.8421189 145.427459 20.3511885 153.671311 20.3511885 153.671311 11.8421189 158.712295 11.8421189 158.712295 32.8011885 153.671311 32.8011885 153.671311 24.1743443 145.427459 24.1743443 145.427459 32.8011885 140.386475 32.8011885"></polygon>
            <path d="M168.970082,23.0172541 L171.07623,14.955123 L173.181148,23.0172541 L168.970082,23.0172541 Z M174.516393,11.8421189 L167.637295,11.8421189 L160.582377,32.8011885 L165.79918,32.8011885 L167.784836,26.6656967 L174.367623,26.6656967 L176.353279,32.8011885 L181.571311,32.8011885 L174.516393,11.8421189 Z" id="Shape" fill="#007A49"></path>
            <path d="M108.334057,23.0172541 L110.439344,14.955123 L112.544754,23.0172541 L108.334057,23.0172541 Z M113.879877,11.8421189 L107.000164,11.8421189 L99.9418033,32.8011885 L105.162049,32.8011885 L107.146967,26.6656967 L113.731598,26.6656967 L115.716516,32.8011885 L120.938238,32.8011885 L113.879877,11.8421189 Z" id="Shape" fill="#007A49"></path>
            <polyline id="Path" fill="#9DC328" points="219.652869 50.850123 217.027869 50.8465574 216.490574 49.9410246 215.60041 49.1992623"></polyline>
            <path d="M92.5562705,59.8326639 C97.3914344,59.8326639 99.2578279,57.6404508 99.2578279,53.5160656 C99.2578279,49.0134836 97.0090574,46.7542623 91.967459,46.7542623 L89.5621721,46.7542623 L89.5621721,59.8326639 L92.5562705,59.8326639 Z M84.5488525,42.8157787 L92.0522951,42.8157787 C99.3186885,42.8157787 104.305451,45.925082 104.305451,53.2240574 C104.305451,60.4878689 99.7967213,63.780123 92.2370902,63.780123 L84.5488525,63.780123 L84.5488525,42.8157787 Z" id="Shape" fill="#8ABE33"></path>
            <path d="M117.04623,54.0217623 C117.10291,52.0661066 116.253443,50.6993852 114.64709,50.6993852 C112.952582,50.6993852 111.861762,51.8857377 111.768074,54.0217623 L117.04623,54.0217623 Z M106.699057,55.9230738 C106.699057,49.3084426 110.165041,47.2006967 115.066721,47.2006967 C120.164877,47.2006967 122.120533,50.5230738 122.120533,55.4143033 L122.120533,57.1937705 L111.620533,57.1937705 C111.592131,59.747582 113.602623,60.2187295 116.184098,60.2187295 C117.285369,60.2187295 119.123975,59.8646311 120.812336,59.5713934 L121.550779,63.3304918 C119.749795,63.8652049 117.435615,64.1325 115.475779,64.1325 C110.132336,64.1325 106.699057,62.3831557 106.699057,55.9230738 Z" id="Shape" fill="#8ABE33"></path>
            <polygon id="Path" fill="#8ABE33" points="123.481967 47.5894672 128.782377 47.5894672 131.515574 56.3654508 132.343033 59.592418 133.265164 56.3654508 136.290984 47.5894672 141.480738 47.5894672 135.188115 63.7796311 129.315984 63.7796311"></polygon>
            <path d="M152.889344,54.0217623 C152.943443,52.0661066 152.082787,50.6993852 150.490574,50.6993852 C148.797541,50.6993852 147.69959,51.8857377 147.606148,54.0217623 L152.889344,54.0217623 Z M142.541803,55.9230738 C142.541803,49.3084426 146.013934,47.2006967 150.902459,47.2006967 C156.004918,47.2006967 157.956148,50.5230738 157.956148,55.4143033 L157.956148,57.1937705 L147.465984,57.1937705 C147.440164,59.747582 149.451639,60.2187295 152.031148,60.2187295 C153.121721,60.2187295 154.972131,59.8646311 156.652869,59.5713934 L157.395492,63.3304918 C155.591803,63.8652049 153.271721,64.1325 151.315574,64.1325 C145.983197,64.1325 142.541803,62.3831557 142.541803,55.9230738 Z" id="Shape" fill="#8ABE33"></path>
            <polygon id="Path" fill="#8ABE33" points="161.097541 41.4188115 166.05123 41.4188115 166.05123 63.7807377 161.097541 63.7807377"></polygon>
            <path d="M180.967623,55.6854098 C180.967623,53.0713525 180.313525,51.084959 177.591393,51.084959 C174.913525,51.084959 174.17459,53.0713525 174.17459,55.7095082 C174.17459,58.4972951 175.002049,60.1898361 177.646721,60.1898361 C180.313525,60.1898361 180.967623,58.4430738 180.967623,55.6854098 Z M169.204918,55.8333197 C169.204918,50.4640574 172.545492,47.1736475 177.671311,47.1736475 C183.431557,47.1736475 186.006148,50.404918 186.006148,55.6854098 C186.006148,61.1981557 182.390164,64.1312705 177.39959,64.1312705 C172.067213,64.1312705 169.204918,60.902459 169.204918,55.8333197 Z" id="Shape" fill="#8ABE33"></path>
            <path d="M200.147951,55.0909426 C200.147951,52.1854918 198.994672,51.3207787 196.502459,51.3207787 C195.665164,51.3207787 194.691393,51.5616393 194.072951,51.7685656 L194.072951,60.1319262 C194.546311,60.1904508 195.382377,60.3098361 196.17541,60.3098361 C198.697131,60.3098361 200.147951,58.1152869 200.147951,55.0909426 Z M189.14877,47.5894672 L194.072951,47.5894672 L194.072951,48.744959 C194.72582,48.182582 196.502459,47.1719262 197.984016,47.1719262 C202.427459,47.1719262 205.12623,49.2211475 205.12623,54.9426639 C205.12623,61.7070492 200.772541,64.0753279 196.056148,64.0753279 C195.313525,64.0753279 194.661885,63.9859426 194.072951,63.9558197 L194.072951,70.3006967 L189.14877,70.3006967 L189.14877,47.5894672 Z" id="Shape" fill="#8ABE33"></path>
            <path d="M208.271311,47.5895902 L213.227459,47.5895902 L213.227459,49.2194262 C214.584836,48.1828279 216.543443,47.1418033 218.468852,47.1418033 C220.779098,47.1418033 222.351639,48.0915984 223.010656,49.6037705 C224.252459,48.4759426 226.472951,47.1418033 228.582787,47.1418033 C233.857377,47.1418033 233.772541,50.9120902 233.772541,53.6370492 L233.772623,63.779877 L228.820082,63.779877 L228.820082,54.0558197 C228.820082,52.0657377 228.311066,51.4417623 226.77541,51.4417623 C225.708197,51.4417623 224.342213,51.8852459 223.422541,52.3614344 C223.481557,52.7783607 223.481557,53.1935656 223.481557,53.6018852 L223.481557,63.779877 L218.562295,63.779877 L218.562295,54.0558197 C218.562295,51.8242623 218.027459,51.5009016 216.543443,51.5009016 C215.447951,51.5009016 214.113934,51.8242623 213.227459,52.3004508 L213.227459,63.779877 L208.271311,63.779877 L208.271311,47.5895902 Z" id="Path" fill="#8ABE33"></path>
            <path d="M247.256557,54.0217623 C247.315574,52.0661066 246.454918,50.6993852 244.855328,50.6993852 C243.161066,50.6993852 242.065574,51.8857377 241.97582,54.0217623 L247.256557,54.0217623 Z M236.904098,55.9230738 C236.904098,49.3084426 240.37623,47.2006967 245.270902,47.2006967 C250.372131,47.2006967 252.328279,50.5230738 252.328279,55.4143033 L252.328279,57.1937705 L241.833197,57.1937705 C241.802459,59.747582 243.818852,60.2187295 246.395902,60.2187295 C247.488934,60.2187295 249.335656,59.8646311 251.02377,59.5713934 L251.762705,63.3304918 C249.955328,63.8652049 247.638934,64.1325 245.688934,64.1325 C240.346721,64.1325 236.904098,62.3831557 236.904098,55.9230738 Z" id="Shape" fill="#8ABE33"></path>
            <path d="M255.464754,47.590082 L260.420902,47.590082 L260.420902,49.219918 C261.405738,48.4764344 263.541393,47.172418 265.70041,47.172418 C270.768443,47.172418 271.120082,49.9583607 271.120082,53.637418 L271.120082,63.7802459 L266.197131,63.7802459 L266.197131,54.0563115 C266.197131,51.8247541 265.70041,51.4422541 264.036885,51.4422541 C262.556557,51.4422541 261.213934,51.9164754 260.420902,52.3008197 L260.420902,63.7802459 L255.464754,63.7802459 L255.464754,47.590082 Z" id="Path" fill="#8ABE33"></path>
            <path d="M275.746721,58.7366803 L275.746721,51.2332377 L273.370082,51.2332377 L273.370082,47.5892213 L275.746721,47.5892213 L275.746721,44.265 L280.67459,44.265 L280.67459,47.5892213 L285.681148,47.5892213 L285.681148,51.2332377 L280.67459,51.2332377 L280.67459,58.7084016 C280.67459,59.8946311 281.115984,59.9815574 282.447541,59.9815574 C283.539344,59.9815574 285.944262,59.6557377 285.944262,59.6557377 L286.420082,63.5411066 C285.261885,63.8644672 283.695492,64.1034836 282.506557,64.1034836 C279.393443,64.1034836 275.746721,64.2512705 275.746721,58.7366803 Z" id="Path" fill="#8ABE33"></path>
        </g>
    </g>
</svg>